#N canvas 588 23 825 685 10;
#X obj 97 301 +~;
#X obj 97 321 cos~;
#X obj 97 440 outlet~;
#X obj 97 151 * 1;
#X obj 262 18 inlet;
#X obj 97 361 *~;
#X obj 97 420 *~ 1;
#X text 123 153 ratio;
#X text 130 421 level;
#X obj 290 270 pd_adsr 1 5 500 50 1000;
#X obj 344 121 unpack f f f f;
#X obj 385 89 unpack f f;
#X text 456 90 note pitch and vel;
#X obj 97 130 mtof;
#X obj 442 121 t f f;
#X obj 469 193 / 128;
#X obj 442 143 > 0;
#X text 474 144 trigger if vel > 0;
#X text 437 267 Built-in PD adsr \; level \; attack ms \; decay ms
\; sustain % \; release ms;
#X text 507 193 map vel to 0-1;
#X obj 203 43 route \$1;
#X obj 262 43 route allOscs;
#X obj 97 271 phasor~ 220;
#X obj 51 271 inlet~;
#X floatatom 523 121 5 0 0 0 - - -;
#X floatatom 294 136 5 0 0 0 - - -;
#X floatatom 303 165 5 0 0 0 - - -;
#X obj 97 246 *;
#X msg 112 213 1;
#X obj 112 190 loadbang;
#X obj 262 68 route ratio level env lfo;
#X floatatom 475 58 5 0 0 0 - - -;
#X connect 0 0 1 0;
#X connect 1 0 5 0;
#X connect 3 0 27 0;
#X connect 4 0 20 0;
#X connect 4 0 21 0;
#X connect 5 0 6 0;
#X connect 6 0 2 0;
#X connect 9 0 5 1;
#X connect 10 0 9 2;
#X connect 10 0 26 0;
#X connect 10 1 9 3;
#X connect 10 2 9 4;
#X connect 10 3 9 5;
#X connect 11 0 13 0;
#X connect 11 0 25 0;
#X connect 11 1 14 0;
#X connect 11 1 24 0;
#X connect 13 0 3 0;
#X connect 14 0 16 0;
#X connect 14 1 15 0;
#X connect 15 0 9 1;
#X connect 16 0 9 0;
#X connect 20 0 30 0;
#X connect 21 0 30 0;
#X connect 22 0 0 1;
#X connect 23 0 0 0;
#X connect 27 0 22 0;
#X connect 28 0 27 1;
#X connect 29 0 28 0;
#X connect 30 0 3 1;
#X connect 30 1 6 1;
#X connect 30 2 10 0;
#X connect 30 3 31 0;
#X connect 30 3 27 1;
#X connect 30 4 11 0;
