#N canvas 2 23 844 806 12;
#X obj 29 9 tgl 15 0 empty empty empty 17 7 0 10 -262144 -1 -1 0 1
;
#X obj 31 711 dac~;
#X obj 31 678 *~;
#X msg 49 645 0;
#X obj 89 619 loadbang;
#X msg 89 645 0.25;
#X msg 136 645 0.5;
#X msg 177 645 1;
#N canvas 485 23 430 436 noteplayer 0;
#X floatatom 172 228 5 0 0 0 - - -;
#X obj 172 273 pack;
#X obj 172 296 poly 16 1;
#X obj 172 319 - 1;
#X obj 172 342 pack f f f;
#X floatatom 281 224 5 0 0 0 - - -;
#X obj 172 250 makenote 100 500;
#X obj 172 16 notein;
#X floatatom 206 43 5 0 0 0 - - -;
#X obj 29 67 random 12;
#X obj 29 90 + 50;
#X obj 29 40 metro 400;
#X obj 281 175 random 300;
#X msg 226 199 100;
#X obj 281 198 + 0;
#X obj 29 13 inlet;
#X obj 172 368 outlet;
#X connect 0 0 6 0;
#X connect 1 0 2 0;
#X connect 2 0 3 0;
#X connect 2 1 4 1;
#X connect 2 2 4 2;
#X connect 3 0 4 0;
#X connect 4 0 16 0;
#X connect 5 0 6 2;
#X connect 6 0 1 0;
#X connect 6 1 1 1;
#X connect 7 0 0 0;
#X connect 7 1 6 1;
#X connect 7 1 8 0;
#X connect 9 0 10 0;
#X connect 10 0 0 0;
#X connect 11 0 9 0;
#X connect 11 0 12 0;
#X connect 12 0 14 0;
#X connect 13 0 6 1;
#X connect 14 0 5 0;
#X connect 15 0 11 0;
#X restore 29 32 pd noteplayer;
#X obj 31 85 pmosc_rec;
#X connect 0 0 8 0;
#X connect 2 0 1 0;
#X connect 2 0 1 1;
#X connect 3 0 2 1;
#X connect 4 0 5 0;
#X connect 5 0 2 1;
#X connect 6 0 2 1;
#X connect 7 0 2 1;
#X connect 8 0 9 0;
#X connect 9 0 2 0;
