#N canvas 27 23 730 607 12;
#X obj 95 129 hsl 100 15 0 32 0 1 empty empty empty -2 -8 0 10 -262144
-1 -1 1856 1;
#X msg 447 266 ratio \$1;
#X obj 95 149 hsl 100 15 0 1 0 1 empty empty empty -2 -8 0 10 -262144
-1 -1 9900 1;
#X msg 447 300 level \$1;
#X obj 382 476 route list;
#X obj 95 168 hsl 100 15 5 5000 0 1 empty empty empty -2 -8 0 10 -262144
-1 -1 0 1;
#X text 79 166 a;
#X obj 95 187 hsl 100 15 5 5000 0 1 empty empty empty -2 -8 0 10 -262144
-1 -1 59 1;
#X obj 95 206 hsl 100 15 0 100 0 1 empty empty empty -2 -8 0 10 -262144
-1 -1 8712 1;
#X obj 95 225 hsl 100 15 5 5000 0 1 empty empty empty -2 -8 0 10 -262144
-1 -1 826 1;
#X text 79 185 d;
#X text 79 223 r;
#X obj 289 301 pack f f f f;
#X obj 289 253 t b;
#X msg 289 324 env \$1 \$2 \$3 \$4;
#X text 51 204 s (%);
#X text 51 126 ratio;
#X text 51 146 level;
#X floatatom 201 128 7 0 0 0 - - -;
#X floatatom 200 147 7 0 0 0 - - -;
#X floatatom 200 166 7 0 0 0 - - -;
#X floatatom 200 185 7 0 0 0 - - -;
#X floatatom 200 204 7 0 0 0 - - -;
#X floatatom 200 223 7 0 0 0 - - -;
#X obj 309 19 inlet;
#X obj 382 500 outlet;
#X obj 382 453 list prepend all toOscs \$1;
#X obj 309 48 route \$1;
#X obj 380 48 route allOscs;
#X obj 395 106 unpack f f f f;
#X obj 471 185 i;
#X obj 471 208 sel 0;
#X msg 471 231 0.5;
#X text 522 188 convert ratio to \; an integer and \; map 0 to 0.5
;
#X obj 558 40 loadbang;
#X msg 558 63 5 250 50 1000;
#X obj 75 24 loadbang;
#X msg 75 47 1;
#X obj 309 75 route ratio level env lfo;
#X msg 547 339 lfo \$1;
#X connect 0 0 30 0;
#X connect 1 0 26 0;
#X connect 2 0 19 0;
#X connect 3 0 26 0;
#X connect 4 0 25 0;
#X connect 5 0 20 0;
#X connect 7 0 21 0;
#X connect 8 0 22 0;
#X connect 9 0 23 0;
#X connect 12 0 14 0;
#X connect 13 0 12 0;
#X connect 14 0 26 0;
#X connect 18 0 1 0;
#X connect 19 0 3 0;
#X connect 20 0 12 0;
#X connect 20 0 13 0;
#X connect 21 0 12 1;
#X connect 21 0 13 0;
#X connect 22 0 12 2;
#X connect 22 0 13 0;
#X connect 23 0 12 3;
#X connect 23 0 13 0;
#X connect 24 0 27 0;
#X connect 24 0 28 0;
#X connect 26 0 4 0;
#X connect 27 0 38 0;
#X connect 28 0 38 0;
#X connect 29 0 5 0;
#X connect 29 1 7 0;
#X connect 29 2 8 0;
#X connect 29 3 9 0;
#X connect 30 0 31 0;
#X connect 31 0 32 0;
#X connect 31 1 18 0;
#X connect 32 0 18 0;
#X connect 34 0 35 0;
#X connect 35 0 29 0;
#X connect 36 0 37 0;
#X connect 37 0 18 0;
#X connect 37 0 0 0;
#X connect 37 0 2 0;
#X connect 37 0 19 0;
#X connect 38 0 0 0;
#X connect 38 1 2 0;
#X connect 38 2 29 0;
#X connect 38 3 39 0;
#X connect 39 0 26 0;
#X coords 0 -1 1 1 205 132 1 50 110;
