#N canvas 359 23 1046 831 12;
#X declare -path ../weighted_mode_player;
#X declare -path ../modeffects;
#X obj 31 19 tgl 15 0 empty empty empty 17 7 0 10 -262144 -1 -1 0 1
;
#X obj 414 800 dac~;
#X obj 414 767 *~;
#X msg 432 734 0;
#X obj 472 704 loadbang;
#X msg 472 734 0.25;
#X msg 519 734 0.5;
#X msg 560 734 1;
#N canvas 39 23 430 436 noteplayer 0;
#X floatatom 172 228 5 0 0 0 - - -;
#X obj 172 273 pack;
#X obj 172 296 poly 16 1;
#X obj 172 319 - 1;
#X obj 172 342 pack f f f;
#X floatatom 281 224 5 0 0 0 - - -;
#X obj 172 250 makenote 100 500;
#X obj 172 16 notein;
#X floatatom 206 43 5 0 0 0 - - -;
#X obj 29 67 random 12;
#X obj 29 90 + 50;
#X obj 29 40 metro 400;
#X obj 281 175 random 300;
#X msg 226 199 100;
#X obj 281 198 + 0;
#X obj 29 13 inlet;
#X obj 172 368 outlet;
#X connect 0 0 6 0;
#X connect 1 0 2 0;
#X connect 2 0 3 0;
#X connect 2 1 4 1;
#X connect 2 2 4 2;
#X connect 3 0 4 0;
#X connect 4 0 16 0;
#X connect 5 0 6 2;
#X connect 6 0 1 0;
#X connect 6 1 1 1;
#X connect 7 0 0 0;
#X connect 7 1 6 1;
#X connect 7 1 8 0;
#X connect 9 0 10 0;
#X connect 10 0 0 0;
#X connect 11 0 9 0;
#X connect 11 0 12 0;
#X connect 12 0 14 0;
#X connect 13 0 6 1;
#X connect 14 0 5 0;
#X connect 15 0 11 0;
#X restore 31 42 pd noteplayer;
#X obj 31 157 pmosc_rec;
#X obj 672 739 delay 100;
#X msg 672 764 \; pd dsp 1;
#X obj 542 12 declare -path ../weighted_mode_player;
#X obj 542 33 declare -path ../modeffects;
#X obj 202 41 weighted_mode_player;
#X msg 278 16 60;
#X msg 313 16 70;
#X obj 355 18 tgl 15 0 empty empty empty 17 7 0 10 -262144 -1 -1 0
1;
#X msg 161 14 1000;
#X msg 242 15 50;
#X msg 201 14 4000;
#X msg 121 14 500;
#N canvas 0 23 211 234 notify 0;
#X floatatom 11 41 5 0 0 0 - - -;
#X obj 11 64 makenote 100 500;
#X floatatom 65 42 5 0 0 0 - - -;
#X floatatom 120 42 5 0 0 0 - - -;
#X obj 11 89 pack;
#X obj 11 112 poly 16 1;
#X obj 11 135 - 1;
#X obj 11 158 pack f f f;
#X obj 11 15 inlet;
#X obj 11 181 outlet;
#X obj 65 15 inlet;
#X obj 120 15 inlet;
#X connect 0 0 1 0;
#X connect 1 0 4 0;
#X connect 1 1 4 1;
#X connect 2 0 1 1;
#X connect 3 0 1 2;
#X connect 4 0 5 0;
#X connect 5 0 6 0;
#X connect 5 1 7 1;
#X connect 5 2 7 2;
#X connect 6 0 7 0;
#X connect 7 0 9 0;
#X connect 8 0 0 0;
#X connect 10 0 2 0;
#X connect 11 0 3 0;
#X restore 202 132 pd notify;
#X obj 697 238 vardelay;
#X obj 686 290 *~ 1;
#X obj 661 255 vsl 15 60 0 1 0 1 empty empty empty 0 -9 0 10 -262144
-1 -1 0 1;
#X obj 711 162 vsl 15 60 0 200 0 1 empty empty empty 0 -9 0 10 -262144
-1 -1 1300 1;
#X obj 731 162 vsl 15 60 0 1000 0 1 empty empty empty 0 -9 0 10 -262144
-1 -1 1800 1;
#X obj 751 162 vsl 15 60 0 200 0 1 empty empty empty 0 -9 0 10 -262144
-1 -1 5900 1;
#X obj 771 162 vsl 15 60 0 100 0 1 empty empty empty 0 -9 0 10 -262144
-1 -1 1500 1;
#X obj 51 672 s~ \$0-dry;
#X obj 697 132 r~ \$0-dry;
#X obj 397 704 r~ \$0-out;
#X obj 686 313 s~ \$0-out;
#X obj 54 724 *~ 1;
#X obj 29 689 vsl 15 60 0 1 0 1 empty empty empty 0 -9 0 10 -262144
-1 -1 2600 1;
#X text 643 719 For headless mode;
#X obj 843 165 r~ \$0-dry;
#X obj 810 480 *~ 1;
#X obj 785 445 vsl 15 60 0 1 0 1 empty empty empty 0 -9 0 10 -262144
-1 -1 3400 1;
#X obj 810 223 comb_filter;
#X connect 0 0 8 0;
#X connect 2 0 1 0;
#X connect 2 0 1 1;
#X connect 3 0 2 1;
#X connect 4 0 5 0;
#X connect 4 0 10 0;
#X connect 5 0 2 1;
#X connect 6 0 2 1;
#X connect 7 0 2 1;
#X connect 8 0 9 0;
#X connect 9 0 30 0;
#X connect 9 0 34 0;
#X connect 10 0 11 0;
#X connect 14 0 22 0;
#X connect 15 0 14 1;
#X connect 16 0 14 1;
#X connect 17 0 14 2;
#X connect 18 0 14 0;
#X connect 19 0 14 1;
#X connect 20 0 14 0;
#X connect 21 0 14 0;
#X connect 22 0 9 0;
#X connect 23 0 24 0;
#X connect 24 0 33 0;
#X connect 25 0 24 1;
#X connect 26 0 23 1;
#X connect 27 0 23 2;
#X connect 28 0 23 3;
#X connect 29 0 23 4;
#X connect 31 0 23 0;
#X connect 32 0 2 0;
#X connect 34 0 2 0;
#X connect 35 0 34 1;
#X connect 37 0 40 0;
#X connect 38 0 33 0;
#X connect 39 0 38 1;
#X connect 40 0 38 0;
