#N canvas 46 23 1394 833 12;
#X floatatom 106 152 5 1 32 0 - - -;
#X msg 139 74 1;
#X obj 381 4 loadbang;
#X msg 370 610 all algorithm \$1;
#X floatatom 106 199 5 1 32 0 - - -;
#X msg 507 635 all feedback \$1;
#X obj 109 176 hsl 100 15 0 1 0 1 empty empty empty -2 -8 0 10 -262144
-1 -1 990 1;
#X msg 106 73 0.5;
#X obj 384 635 r \$0-to_poly_osc;
#X obj 911 192 s \$0-to_interface;
#X msg 911 130 1 ratio 4;
#X msg 928 160 2 ratio 3;
#X obj 106 124 bng 20 250 50 0 empty empty empty 17 7 0 10 -262144
-1 -1;
#N canvas 247 23 1193 417 rand_settings 0;
#X obj 37 37 inlet;
#X obj 37 60 t b b b, f 86;
#X obj 636 107 t b b b b b b, f 59;
#X obj 1046 144 t b b;
#X obj 964 144 t b b;
#X obj 882 144 t b b;
#X obj 800 144 t b b;
#X obj 718 144 t b b;
#X obj 636 144 t b b;
#X msg 1078 168 1;
#X msg 996 168 2;
#X msg 914 168 3;
#X msg 832 168 4;
#X msg 750 168 5;
#X msg 668 168 6;
#N canvas 305 117 1135 702 randomize_osc 0;
#X obj 69 41 inlet;
#X obj 448 49 inlet;
#X obj 312 456 outlet;
#X obj 40 126 random 4;
#X obj 40 149 sel 0 1 2 3;
#X floatatom 40 235 5 0 0 0 - - -;
#X msg 40 192 1;
#X obj 95 176 random 100;
#X obj 95 199 * 0.01;
#X text 181 160 3 times out of 4 the level \; will be 1 \, and 1 out
of 4 \; the level will be random;
#X obj 40 275 pack f f;
#X msg 40 298 \$2 level \$1;
#X obj 410 129 random 4;
#X obj 410 152 sel 0 1 2 3, f 16;
#X floatatom 410 238 5 0 0 0 - - -;
#X msg 410 195 1;
#X obj 410 278 pack f f;
#X msg 410 301 \$2 ratio \$1;
#X msg 447 195 0.5;
#X obj 491 179 random 8;
#X obj 491 202 + 1;
#X text 61 105 level;
#X text 424 106 ratio;
#X text 649 110 env;
#X obj 590 131 t b b b b, f 66;
#X obj 660 368 pack f f f f f;
#X msg 660 391 \$5 env \$1 \$2 \$3 \$4;
#X obj 590 180 random 8;
#X obj 590 203 sel 0 1 2 3 4 5 6 7;
#X msg 590 246 5;
#X obj 653 245 random 2000;
#X obj 743 179 random 100;
#X obj 743 202 * 0.01;
#X obj 743 231 *;
#X obj 743 254 *;
#X obj 743 277 * 3000;
#X text 600 158 A;
#X text 756 159 D;
#X text 905 160 S;
#X text 1058 158 R;
#X obj 896 180 random 100;
#X obj 1049 179 random 100;
#X obj 1049 202 * 0.01;
#X obj 1049 231 *;
#X obj 1049 254 * 3000;
#X connect 0 0 3 0;
#X connect 0 0 12 0;
#X connect 0 0 24 0;
#X connect 1 0 16 1;
#X connect 1 0 10 1;
#X connect 1 0 25 4;
#X connect 3 0 4 0;
#X connect 4 0 6 0;
#X connect 4 1 6 0;
#X connect 4 2 6 0;
#X connect 4 3 7 0;
#X connect 5 0 10 0;
#X connect 6 0 5 0;
#X connect 7 0 8 0;
#X connect 8 0 5 0;
#X connect 10 0 11 0;
#X connect 11 0 2 0;
#X connect 12 0 13 0;
#X connect 13 0 15 0;
#X connect 13 1 18 0;
#X connect 13 2 19 0;
#X connect 13 3 19 0;
#X connect 14 0 16 0;
#X connect 15 0 14 0;
#X connect 16 0 17 0;
#X connect 17 0 2 0;
#X connect 18 0 14 0;
#X connect 19 0 20 0;
#X connect 20 0 14 0;
#X connect 24 0 27 0;
#X connect 24 1 31 0;
#X connect 24 2 40 0;
#X connect 24 3 41 0;
#X connect 25 0 26 0;
#X connect 26 0 2 0;
#X connect 27 0 28 0;
#X connect 28 0 29 0;
#X connect 28 1 29 0;
#X connect 28 2 29 0;
#X connect 28 3 29 0;
#X connect 28 4 30 0;
#X connect 28 5 29 0;
#X connect 28 6 29 0;
#X connect 28 7 30 0;
#X connect 29 0 25 0;
#X connect 30 0 25 0;
#X connect 31 0 32 0;
#X connect 32 0 33 0;
#X connect 32 0 33 1;
#X connect 32 0 34 1;
#X connect 33 0 34 0;
#X connect 34 0 35 0;
#X connect 35 0 25 1;
#X connect 40 0 25 2;
#X connect 41 0 42 0;
#X connect 42 0 43 0;
#X connect 42 0 43 1;
#X connect 43 0 44 0;
#X connect 44 0 25 3;
#X restore 650 265 pd randomize_osc;
#X obj 650 333 outlet;
#X obj 37 173 random 32;
#X obj 37 196 + 1;
#X obj 37 328 outlet;
#X obj 336 178 random 4;
#X obj 336 201 sel 0 1 2 3;
#X msg 336 238 0;
#X text 51 143 algorithm;
#X text 361 150 feedback;
#X obj 391 238 random 100;
#X obj 391 261 * 0.01;
#X floatatom 337 303 5 0 0 0 - - -;
#X obj 337 333 outlet;
#X connect 0 0 1 0;
#X connect 1 0 17 0;
#X connect 1 1 20 0;
#X connect 1 2 2 0;
#X connect 2 0 8 0;
#X connect 2 1 7 0;
#X connect 2 2 6 0;
#X connect 2 3 5 0;
#X connect 2 4 4 0;
#X connect 2 5 3 0;
#X connect 3 0 15 0;
#X connect 3 1 9 0;
#X connect 4 0 15 0;
#X connect 4 1 10 0;
#X connect 5 0 15 0;
#X connect 5 1 11 0;
#X connect 6 0 15 0;
#X connect 6 1 12 0;
#X connect 7 0 15 0;
#X connect 7 1 13 0;
#X connect 8 0 15 0;
#X connect 8 1 14 0;
#X connect 9 0 15 1;
#X connect 10 0 15 1;
#X connect 11 0 15 1;
#X connect 12 0 15 1;
#X connect 13 0 15 1;
#X connect 14 0 15 1;
#X connect 15 0 16 0;
#X connect 17 0 18 0;
#X connect 18 0 19 0;
#X connect 20 0 21 0;
#X connect 21 0 22 0;
#X connect 21 1 22 0;
#X connect 21 2 22 0;
#X connect 21 3 25 0;
#X connect 22 0 27 0;
#X connect 25 0 26 0;
#X connect 26 0 27 0;
#X connect 27 0 28 0;
#X restore 629 13 pd rand_settings;
#X obj 738 38 s \$0-to_interface;
#X obj 20 147 tgl 15 0 empty empty empty 17 7 0 10 -262144 -1 -1 0
1;
#X text 128 124 randomize;
#N canvas 50 23 662 550 lfo 0;
#X obj 67 57 hsl 90 15 0.005 4000 0 0 empty empty rate_(0.005hz_-_40hz)
-2 -8 0 10 -262144 -1 -1 0 1;
#X obj 67 116 hsl 90 15 0 1 0 0 empty empty depth -2 -8 0 10 -262144
-1 -1 0 1;
#X obj 198 299 swap 1;
#X obj 198 330 -;
#X obj 62 9 inlet rate;
#X obj 170 9 inlet depth;
#X floatatom 64 79 5 0 0 0 - - -;
#X text 101 79 Hz;
#X floatatom 126 79 5 0 0 0 - - -;
#X obj 12 114 * 100;
#X floatatom 64 138 5 0 0 0 - - -;
#X text 103 138 %;
#X obj 2 78 pow -1;
#X text 163 79 secs;
#X obj 218 197 cos;
#X obj 164 461 outlet signal;
#X floatatom 258 198 10 0 0 0 - - -;
#X obj 217 163 tgl 15 0 empty empty empty 17 7 0 10 -262144 -1 -1 1
1;
#X obj 230 92 * 1000;
#X floatatom 385 86 5 0 0 0 - - -;
#X obj 263 129 metro 100;
#X obj 218 260 * 0.5;
#X obj 164 340 *;
#X obj 164 373 +;
#X obj 218 234 + 1;
#X obj 360 193 float;
#X obj 424 194 + 1;
#X floatatom 360 255 5 0 0 0 - - -;
#X obj 360 234 mod 100;
#X obj 360 277 / 100;
#X floatatom 360 300 5 0 0 0 - - -;
#X floatatom 360 347 5 0 0 0 - - -;
#X obj 360 324 * 6.28;
#X floatatom 126 166 5 0 0 0 - - -;
#X obj 332 418 outlet x;
#X floatatom 264 286 5 0 0 0 - - -;
#X obj 322 52 loadbang;
#X obj 392 118 t b;
#X obj 173 167 tgl 15 0 empty empty empty 17 7 0 10 -262144 -1 -1 0
1;
#X obj 164 416 spigot;
#X floatatom 46 255 5 0 0 0 - - -;
#X obj 46 284 sel 0;
#X msg 46 313 1;
#X connect 0 0 6 0;
#X connect 1 0 2 0;
#X connect 1 0 9 0;
#X connect 1 0 22 1;
#X connect 2 0 3 0;
#X connect 2 1 3 1;
#X connect 3 0 23 1;
#X connect 4 0 0 0;
#X connect 5 0 1 0;
#X connect 6 0 12 0;
#X connect 8 0 18 0;
#X connect 9 0 10 0;
#X connect 12 0 8 0;
#X connect 14 0 16 0;
#X connect 14 0 24 0;
#X connect 17 0 20 0;
#X connect 18 0 19 0;
#X connect 18 0 20 1;
#X connect 18 0 37 0;
#X connect 20 0 25 0;
#X connect 21 0 22 0;
#X connect 21 0 35 0;
#X connect 22 0 23 0;
#X connect 23 0 39 0;
#X connect 24 0 21 0;
#X connect 25 0 26 0;
#X connect 25 0 28 0;
#X connect 26 0 25 1;
#X connect 27 0 29 0;
#X connect 27 0 34 0;
#X connect 28 0 27 0;
#X connect 29 0 30 0;
#X connect 30 0 32 0;
#X connect 31 0 14 0;
#X connect 32 0 31 0;
#X connect 36 0 17 0;
#X connect 37 0 20 0;
#X connect 38 0 40 0;
#X connect 38 0 39 1;
#X connect 39 0 33 0;
#X connect 39 0 15 0;
#X connect 40 0 41 0;
#X connect 41 0 42 0;
#X connect 42 0 15 0;
#X connect 42 0 33 0;
#X coords 0 -1 1 1 140 160 1 55 30;
#X restore 106 224 pd lfo;
#X obj 141 646 * 10;
#X floatatom 166 619 5 0 0 0 - - -;
#X obj 20 172 metro 400;
#X obj 370 666 clone poly_phase_mod_osc 16;
#X floatatom 110 702 5 0 0 0 - - -;
#X obj 120 728 s \$0-lfo;
#X msg 110 754 1 lfo \$1;
#X obj 110 777 s \$0-to_interface;
#N canvas 0 22 450 278 (subpatch) 0;
#X array \$0-mute_wave 100 float 1;
#A 0 0 1 0 1 0 1 0 1 0 1 0 1 0 1 0 1 0 1 0 1 0 1 0 1.875 0 1 0 1 0
1 0 1 0 1 0 1 0 1 2.475 1 0 1 0 1 0 1 0 1 0 1 0 1 0 1 0 1 0 1 0 1 0
1 0 1 0 1 0 1 0 1 0 1 0 1 0 1 0 1 0 1 0 1 0 1 0 1 0 1 0 1 0 1 0 1 0
1 0 1 0 1;
#X coords 0 3 99 -3 200 55 1 0 0;
#X restore 105 540 graph;
#X obj 370 755 *~;
#X obj 309 699 loadbang;
#X msg 309 722 1;
#N canvas 0 23 450 278 (subpatch) 0;
#X array \$0-lfo_wave 100 float 1;
#A 0 9.99048 9.96194 9.91451 9.84836 9.76377 9.66106 9.54063 9.40297
9.24862 9.07818 8.89232 8.69179 8.47736 8.24989 8.01027 7.75944 7.4984
7.22818 6.94984 6.66447 6.37321 6.07719 5.77759 5.47559 5.17239 4.86916
4.56712 4.26745 3.97133 3.67993 3.3944 3.11586 2.84542 2.58413 2.33304
10 1.86533 1.65056 1.44966 1.26343 1.09259 0.937816 0.799724 0.678858
0.575692 0.490633 0.424018 0.376108 0.347092 0.337085 0.346126 0.37418
0.421135 0.486808 0.570939 0.673196 0.793175 0.930405 0 0 0 0 0 0 0
0 0 0 0 10 3.95642 4.25233 4.55185 4.85381 5.157 5.46023 5.76232 6.06207
6.3583 6.64983 6.93552 7.21425 7.48491 7.74644 7.99781 8.23802 8.46613
8.68124 8.8825 9.06912 9.24036 9.39554 9.53406 9.65537 9.75899 9.84451
9.9116 9.95999 9.98948 10;
#X coords 0 10 99 0 200 55 1 0 0;
#X restore 310 540 graph;
#X obj 309 745 sig~;
#X obj 370 792 outlet~;
#X text 147 152 algorithm;
#X text 211 175 feedback;
#X msg 1095 164 \$1 ratio \$2;
#X obj 1095 190 s \$0-to_interface;
#X obj 1095 138 pack f f;
#X floatatom 1095 88 5 0 0 0 - - -;
#X floatatom 1148 110 5 0 0 0 - - -;
#X obj 1071 108 bng 15 250 50 0 empty empty empty 17 7 0 10 -262144
-1 -1;
#X obj 107 6 inlet;
#X obj 586 66 r \$0-to_interface;
#X obj 284 112 pmosc_ui 1;
#X obj 504 112 pmosc_ui 2;
#X obj 284 252 pmosc_ui 3;
#X obj 504 252 pmosc_ui 4;
#X obj 284 392 pmosc_ui 5;
#X obj 504 392 pmosc_ui 6;
#X obj 639 614 s \$0-to_poly_osc;
#X obj 440 752 tabwrite~ \$0-mute_wave;
#N canvas 34 23 580 522 vibrato 0;
#N canvas 231 23 534 521 mute_pat_seq 0;
#X obj 37 37 inlet;
#X obj 95 68 tgl 15 0 empty empty empty 17 7 0 10 -262144 -1 -1 0 1
;
#X obj 95 141 +;
#X obj 95 165 mod 100;
#X floatatom 95 188 5 0 0 0 - - -;
#X msg 95 117 1;
#X obj 155 38 inlet;
#X obj 95 91 metro 200;
#X obj 108 229 mod 2;
#X floatatom 108 252 5 0 0 0 - - -;
#X obj 108 284 sel 1;
#X obj 108 309 bng 15 250 50 0 empty empty empty 17 7 0 10 -262144
-1 -1;
#X obj 151 317 sel 0;
#X obj 152 339 bng 15 250 50 0 empty empty empty 17 7 0 10 -262144
-1 -1;
#X obj 199 403 line;
#X floatatom 211 83 5 0 0 0 - - -;
#X msg 100 345 1;
#X msg 186 355 0;
#X obj 211 116 / 10;
#X obj 236 39 inlet;
#X floatatom 211 199 5 0 0 0 - - -;
#X obj 167 160 t b;
#X obj 314 426 outlet;
#X obj 276 79 t b;
#X obj 187 443 lop~ 1000;
#X floatatom 380 262 5 0 0 0 - - -;
#X obj 357 39 inlet;
#X obj 78 482 outlet~;
#X connect 0 0 1 0;
#X connect 1 0 7 0;
#X connect 2 0 3 0;
#X connect 3 0 4 0;
#X connect 4 0 2 1;
#X connect 4 0 8 0;
#X connect 4 0 22 0;
#X connect 5 0 2 0;
#X connect 6 0 7 1;
#X connect 6 0 15 0;
#X connect 7 0 5 0;
#X connect 7 0 21 0;
#X connect 8 0 9 0;
#X connect 9 0 10 0;
#X connect 10 0 11 0;
#X connect 10 1 12 0;
#X connect 11 0 16 0;
#X connect 12 0 13 0;
#X connect 13 0 17 0;
#X connect 14 0 24 0;
#X connect 15 0 18 0;
#X connect 16 0 14 0;
#X connect 17 0 14 0;
#X connect 18 0 20 0;
#X connect 19 0 18 1;
#X connect 19 0 23 0;
#X connect 20 0 14 1;
#X connect 21 0 20 0;
#X connect 23 0 15 0;
#X connect 24 0 27 0;
#X connect 25 0 24 1;
#X connect 26 0 25 0;
#X restore 44 119 pd mute_pat_seq;
#X floatatom 66 73 5 0 0 0 - - -;
#X obj 44 74 tgl 15 0 empty empty empty 17 7 0 10 -262144 -1 -1 0 1
;
#X floatatom 109 73 5 0 0 0 - - -;
#X floatatom 152 73 5 0 0 0 - - -;
#X text 63 55 rate;
#X text 106 55 depth;
#X text 153 56 cutoff;
#X obj 44 148 outlet~;
#X obj 419 89 sel 0 1 2 3;
#X obj 44 93 hradio 15 1 0 4 empty empty empty 0 -8 0 10 -262144 -1
-1 1;
#X obj 146 10 r \$0-vdepth;
#X obj 234 10 r \$0-vcutoff;
#X msg 155 421 \; \$0-vrate 100 \; \$0-vdepth 200 \; \$0-vcutoff 200
;
#X obj 159 361 symbol \$0;
#X obj 158 315 bng 15 250 50 0 empty empty empty 17 7 0 10 -262144
-1 -1;
#X obj 246 379 bng 15 250 50 0 empty empty empty 17 7 0 10 -262144
-1 -1;
#X symbolatom 73 359 10 0 0 0 - - -;
#X obj 66 10 r \$0-vrate;
#X obj 277 238 s \$0-vrate;
#X obj 356 238 s \$0-vdepth;
#X obj 442 238 s \$0-vcutoff;
#X msg 279 136 100;
#X msg 279 160 200;
#X msg 279 183 200;
#X msg 325 136 50;
#X msg 325 160 100;
#X msg 372 136 200;
#X msg 372 160 400;
#X msg 372 183 200;
#X msg 412 183 200;
#X msg 412 136 400;
#X msg 412 160 300;
#X msg 325 183 80;
#X connect 0 0 8 0;
#X connect 1 0 0 1;
#X connect 2 0 0 0;
#X connect 3 0 0 2;
#X connect 4 0 0 3;
#X connect 9 0 22 0;
#X connect 9 0 23 0;
#X connect 9 0 24 0;
#X connect 9 1 25 0;
#X connect 9 1 26 0;
#X connect 9 1 33 0;
#X connect 9 2 27 0;
#X connect 9 2 28 0;
#X connect 9 2 29 0;
#X connect 9 3 31 0;
#X connect 9 3 32 0;
#X connect 9 3 30 0;
#X connect 10 0 9 0;
#X connect 11 0 3 0;
#X connect 12 0 4 0;
#X connect 15 0 14 0;
#X connect 15 0 17 0;
#X connect 16 0 13 0;
#X connect 17 0 13 0;
#X connect 18 0 1 0;
#X connect 22 0 19 0;
#X connect 23 0 20 0;
#X connect 24 0 21 0;
#X connect 25 0 19 0;
#X connect 26 0 20 0;
#X connect 27 0 19 0;
#X connect 28 0 20 0;
#X connect 29 0 21 0;
#X connect 30 0 21 0;
#X connect 31 0 19 0;
#X connect 32 0 20 0;
#X connect 33 0 21 0;
#X coords 0 -1 1 1 165 73 1 40 40;
#X restore 106 392 pd vibrato;
#X obj 141 675 tabwrite \$0-lfo_wave;
#X obj 525 577 hradio 15 1 0 8 empty empty preset 0 -8 0 10 -262144
-1 -1 6;
#X floatatom 650 576 5 0 0 0 - - -;
#X obj 525 597 + 1;
#N canvas 13 57 1274 766 presets 0;
#X obj 84 41 inlet;
#X obj 84 66 sel 0 1 2 3 4 5 6 7, f 167;
#X obj 60 537 outlet;
#X obj 485 537 outlet;
#X obj 900 537 outlet;
#X text 56 562 algorithm;
#X text 481 562 feedback;
#X text 898 562 params;
#X msg 20 167 1;
#X msg 465 445 0;
#X msg 536 445 0.5;
#N canvas 0 23 1390 750 osc_preset_1 0;
#X obj 40 19 inlet;
#X obj 698 583 outlet;
#X msg 40 307 1;
#X msg 94 333 1;
#X msg 305 206 2;
#X msg 188 333 5 100 16 600;
#N canvas 0 23 421 370 osc_env_pre 0;
#X obj 102 51 inlet;
#X obj 102 248 outlet;
#X obj 170 51 inlet;
#X msg 102 211 \$5 env \$1 \$2 \$3 \$4;
#X obj 170 97 unpack f f f f;
#X obj 102 176 pack f f f f f;
#X connect 0 0 5 4;
#X connect 2 0 4 0;
#X connect 3 0 1 0;
#X connect 4 0 5 0;
#X connect 4 1 5 1;
#X connect 4 2 5 2;
#X connect 4 3 5 3;
#X connect 5 0 3 0;
#X restore 166 360 pd osc_env_pre;
#N canvas 0 23 421 370 osc_env_pre 0;
#X obj 102 51 inlet;
#X obj 102 248 outlet;
#X obj 170 51 inlet;
#X msg 102 211 \$5 env \$1 \$2 \$3 \$4;
#X obj 170 97 unpack f f f f;
#X obj 102 176 pack f f f f f;
#X connect 0 0 5 4;
#X connect 2 0 4 0;
#X connect 3 0 1 0;
#X connect 4 0 5 0;
#X connect 4 1 5 1;
#X connect 4 2 5 2;
#X connect 4 3 5 3;
#X connect 5 0 3 0;
#X restore 431 255 pd osc_env_pre;
#N canvas 0 23 450 300 osc_ratio_lvl 0;
#X obj 56 34 inlet;
#X obj 126 34 inlet;
#X obj 62 252 outlet;
#X obj 198 34 inlet;
#X obj 62 113 pack f f;
#X obj 182 113 pack f f;
#X msg 62 159 \$2 ratio \$1;
#X msg 182 159 \$2 level \$1;
#X connect 0 0 4 1;
#X connect 0 0 5 1;
#X connect 1 0 4 0;
#X connect 3 0 5 0;
#X connect 4 0 6 0;
#X connect 5 0 7 0;
#X connect 6 0 2 0;
#X connect 7 0 2 0;
#X restore 40 360 pd osc_ratio_lvl;
#X msg 454 228 20 200 16 600;
#N canvas 0 23 450 300 osc_ratio_lvl 0;
#X obj 56 34 inlet;
#X obj 126 34 inlet;
#X obj 62 252 outlet;
#X obj 198 34 inlet;
#X obj 62 113 pack f f;
#X obj 182 113 pack f f;
#X msg 62 159 \$2 ratio \$1;
#X msg 182 159 \$2 level \$1;
#X connect 0 0 4 1;
#X connect 0 0 5 1;
#X connect 1 0 4 0;
#X connect 3 0 5 0;
#X connect 4 0 6 0;
#X connect 5 0 7 0;
#X connect 6 0 2 0;
#X connect 7 0 2 0;
#X restore 305 254 pd osc_ratio_lvl;
#X msg 149 333 1;
#X msg 414 228 1;
#X msg 359 228 1;
#X obj 40 42 t b b b b b b, f 190;
#X msg 624 333 1;
#X msg 718 333 5 100 16 600;
#N canvas 0 23 421 370 osc_env_pre 0;
#X obj 102 51 inlet;
#X obj 102 248 outlet;
#X obj 170 51 inlet;
#X msg 102 211 \$5 env \$1 \$2 \$3 \$4;
#X obj 170 97 unpack f f f f;
#X obj 102 176 pack f f f f f;
#X connect 0 0 5 4;
#X connect 2 0 4 0;
#X connect 3 0 1 0;
#X connect 4 0 5 0;
#X connect 4 1 5 1;
#X connect 4 2 5 2;
#X connect 4 3 5 3;
#X connect 5 0 3 0;
#X restore 696 360 pd osc_env_pre;
#N canvas 0 23 421 370 osc_env_pre 0;
#X obj 102 51 inlet;
#X obj 102 248 outlet;
#X obj 170 51 inlet;
#X msg 102 211 \$5 env \$1 \$2 \$3 \$4;
#X obj 170 97 unpack f f f f;
#X obj 102 176 pack f f f f f;
#X connect 0 0 5 4;
#X connect 2 0 4 0;
#X connect 3 0 1 0;
#X connect 4 0 5 0;
#X connect 4 1 5 1;
#X connect 4 2 5 2;
#X connect 4 3 5 3;
#X connect 5 0 3 0;
#X restore 962 255 pd osc_env_pre;
#N canvas 0 23 450 300 osc_ratio_lvl 0;
#X obj 56 34 inlet;
#X obj 126 34 inlet;
#X obj 62 252 outlet;
#X obj 198 34 inlet;
#X obj 62 113 pack f f;
#X obj 182 113 pack f f;
#X msg 62 159 \$2 ratio \$1;
#X msg 182 159 \$2 level \$1;
#X connect 0 0 4 1;
#X connect 0 0 5 1;
#X connect 1 0 4 0;
#X connect 3 0 5 0;
#X connect 4 0 6 0;
#X connect 5 0 7 0;
#X connect 6 0 2 0;
#X connect 7 0 2 0;
#X restore 570 360 pd osc_ratio_lvl;
#X msg 985 228 20 200 16 600;
#N canvas 0 23 450 300 osc_ratio_lvl 0;
#X obj 56 34 inlet;
#X obj 126 34 inlet;
#X obj 62 252 outlet;
#X obj 198 34 inlet;
#X obj 62 113 pack f f;
#X obj 182 113 pack f f;
#X msg 62 159 \$2 ratio \$1;
#X msg 182 159 \$2 level \$1;
#X connect 0 0 4 1;
#X connect 0 0 5 1;
#X connect 1 0 4 0;
#X connect 3 0 5 0;
#X connect 4 0 6 0;
#X connect 5 0 7 0;
#X connect 6 0 2 0;
#X connect 7 0 2 0;
#X restore 836 254 pd osc_ratio_lvl;
#X msg 679 333 1;
#X msg 945 228 1;
#X msg 890 228 1;
#X msg 570 307 3;
#X msg 836 206 4;
#X msg 1155 343 1;
#X msg 1249 343 5 100 16 600;
#N canvas 0 23 421 370 osc_env_pre 0;
#X obj 102 51 inlet;
#X obj 102 248 outlet;
#X obj 170 51 inlet;
#X msg 102 211 \$5 env \$1 \$2 \$3 \$4;
#X obj 170 97 unpack f f f f;
#X obj 102 176 pack f f f f f;
#X connect 0 0 5 4;
#X connect 2 0 4 0;
#X connect 3 0 1 0;
#X connect 4 0 5 0;
#X connect 4 1 5 1;
#X connect 4 2 5 2;
#X connect 4 3 5 3;
#X connect 5 0 3 0;
#X restore 1227 370 pd osc_env_pre;
#N canvas 0 23 421 370 osc_env_pre 0;
#X obj 102 51 inlet;
#X obj 102 248 outlet;
#X obj 170 51 inlet;
#X msg 102 211 \$5 env \$1 \$2 \$3 \$4;
#X obj 170 97 unpack f f f f;
#X obj 102 176 pack f f f f f;
#X connect 0 0 5 4;
#X connect 2 0 4 0;
#X connect 3 0 1 0;
#X connect 4 0 5 0;
#X connect 4 1 5 1;
#X connect 4 2 5 2;
#X connect 4 3 5 3;
#X connect 5 0 3 0;
#X restore 1264 265 pd osc_env_pre;
#N canvas 0 23 450 300 osc_ratio_lvl 0;
#X obj 56 34 inlet;
#X obj 126 34 inlet;
#X obj 62 252 outlet;
#X obj 198 34 inlet;
#X obj 62 113 pack f f;
#X obj 182 113 pack f f;
#X msg 62 159 \$2 ratio \$1;
#X msg 182 159 \$2 level \$1;
#X connect 0 0 4 1;
#X connect 0 0 5 1;
#X connect 1 0 4 0;
#X connect 3 0 5 0;
#X connect 4 0 6 0;
#X connect 5 0 7 0;
#X connect 6 0 2 0;
#X connect 7 0 2 0;
#X restore 1101 370 pd osc_ratio_lvl;
#X msg 1287 238 20 200 16 600;
#N canvas 0 23 450 300 osc_ratio_lvl 0;
#X obj 56 34 inlet;
#X obj 126 34 inlet;
#X obj 62 252 outlet;
#X obj 198 34 inlet;
#X obj 62 113 pack f f;
#X obj 182 113 pack f f;
#X msg 62 159 \$2 ratio \$1;
#X msg 182 159 \$2 level \$1;
#X connect 0 0 4 1;
#X connect 0 0 5 1;
#X connect 1 0 4 0;
#X connect 3 0 5 0;
#X connect 4 0 6 0;
#X connect 5 0 7 0;
#X connect 6 0 2 0;
#X connect 7 0 2 0;
#X restore 1138 264 pd osc_ratio_lvl;
#X msg 1210 343 1;
#X msg 1247 238 1;
#X msg 1192 238 1;
#X msg 1101 317 5;
#X msg 1138 216 6;
#X connect 0 0 14 0;
#X connect 2 0 6 0;
#X connect 2 0 8 0;
#X connect 3 0 8 1;
#X connect 4 0 7 0;
#X connect 4 0 10 0;
#X connect 5 0 6 1;
#X connect 6 0 1 0;
#X connect 7 0 1 0;
#X connect 8 0 1 0;
#X connect 9 0 7 1;
#X connect 10 0 1 0;
#X connect 11 0 8 2;
#X connect 12 0 10 2;
#X connect 13 0 10 1;
#X connect 14 0 2 0;
#X connect 14 0 3 0;
#X connect 14 0 11 0;
#X connect 14 0 5 0;
#X connect 14 1 4 0;
#X connect 14 1 13 0;
#X connect 14 1 12 0;
#X connect 14 1 9 0;
#X connect 14 2 25 0;
#X connect 14 2 15 0;
#X connect 14 2 22 0;
#X connect 14 2 16 0;
#X connect 14 3 26 0;
#X connect 14 3 24 0;
#X connect 14 3 23 0;
#X connect 14 3 20 0;
#X connect 14 4 37 0;
#X connect 14 4 27 0;
#X connect 14 4 34 0;
#X connect 14 4 28 0;
#X connect 14 5 38 0;
#X connect 14 5 36 0;
#X connect 14 5 35 0;
#X connect 14 5 32 0;
#X connect 15 0 19 1;
#X connect 16 0 17 1;
#X connect 17 0 1 0;
#X connect 18 0 1 0;
#X connect 19 0 1 0;
#X connect 20 0 18 1;
#X connect 21 0 1 0;
#X connect 22 0 19 2;
#X connect 23 0 21 2;
#X connect 24 0 21 1;
#X connect 25 0 17 0;
#X connect 25 0 19 0;
#X connect 26 0 18 0;
#X connect 26 0 21 0;
#X connect 27 0 31 1;
#X connect 28 0 29 1;
#X connect 29 0 1 0;
#X connect 30 0 1 0;
#X connect 31 0 1 0;
#X connect 32 0 30 1;
#X connect 33 0 1 0;
#X connect 34 0 31 2;
#X connect 35 0 33 2;
#X connect 36 0 33 1;
#X connect 37 0 29 0;
#X connect 37 0 31 0;
#X connect 38 0 30 0;
#X connect 38 0 33 0;
#X restore 57 169 pd osc_preset_1;
#N canvas 45 51 1390 750 osc_preset_2 0;
#X obj 40 19 inlet;
#X obj 698 583 outlet;
#X msg 40 307 1;
#X msg 305 206 2;
#N canvas 0 23 421 370 osc_env_pre 0;
#X obj 102 51 inlet;
#X obj 102 248 outlet;
#X obj 170 51 inlet;
#X msg 102 211 \$5 env \$1 \$2 \$3 \$4;
#X obj 170 97 unpack f f f f;
#X obj 102 176 pack f f f f f;
#X connect 0 0 5 4;
#X connect 2 0 4 0;
#X connect 3 0 1 0;
#X connect 4 0 5 0;
#X connect 4 1 5 1;
#X connect 4 2 5 2;
#X connect 4 3 5 3;
#X connect 5 0 3 0;
#X restore 166 360 pd osc_env_pre;
#N canvas 0 23 421 370 osc_env_pre 0;
#X obj 102 51 inlet;
#X obj 102 248 outlet;
#X obj 170 51 inlet;
#X msg 102 211 \$5 env \$1 \$2 \$3 \$4;
#X obj 170 97 unpack f f f f;
#X obj 102 176 pack f f f f f;
#X connect 0 0 5 4;
#X connect 2 0 4 0;
#X connect 3 0 1 0;
#X connect 4 0 5 0;
#X connect 4 1 5 1;
#X connect 4 2 5 2;
#X connect 4 3 5 3;
#X connect 5 0 3 0;
#X restore 431 255 pd osc_env_pre;
#N canvas 0 23 450 300 osc_ratio_lvl 0;
#X obj 56 34 inlet;
#X obj 126 34 inlet;
#X obj 62 252 outlet;
#X obj 198 34 inlet;
#X obj 62 113 pack f f;
#X obj 182 113 pack f f;
#X msg 62 159 \$2 ratio \$1;
#X msg 182 159 \$2 level \$1;
#X connect 0 0 4 1;
#X connect 0 0 5 1;
#X connect 1 0 4 0;
#X connect 3 0 5 0;
#X connect 4 0 6 0;
#X connect 5 0 7 0;
#X connect 6 0 2 0;
#X connect 7 0 2 0;
#X restore 40 360 pd osc_ratio_lvl;
#N canvas 0 23 450 300 osc_ratio_lvl 0;
#X obj 56 34 inlet;
#X obj 126 34 inlet;
#X obj 62 252 outlet;
#X obj 198 34 inlet;
#X obj 62 113 pack f f;
#X obj 182 113 pack f f;
#X msg 62 159 \$2 ratio \$1;
#X msg 182 159 \$2 level \$1;
#X connect 0 0 4 1;
#X connect 0 0 5 1;
#X connect 1 0 4 0;
#X connect 3 0 5 0;
#X connect 4 0 6 0;
#X connect 5 0 7 0;
#X connect 6 0 2 0;
#X connect 7 0 2 0;
#X restore 305 254 pd osc_ratio_lvl;
#X msg 149 333 1;
#X msg 414 228 1;
#X obj 40 42 t b b b b b b, f 190;
#N canvas 0 23 421 370 osc_env_pre 0;
#X obj 102 51 inlet;
#X obj 102 248 outlet;
#X obj 170 51 inlet;
#X msg 102 211 \$5 env \$1 \$2 \$3 \$4;
#X obj 170 97 unpack f f f f;
#X obj 102 176 pack f f f f f;
#X connect 0 0 5 4;
#X connect 2 0 4 0;
#X connect 3 0 1 0;
#X connect 4 0 5 0;
#X connect 4 1 5 1;
#X connect 4 2 5 2;
#X connect 4 3 5 3;
#X connect 5 0 3 0;
#X restore 696 360 pd osc_env_pre;
#N canvas 0 23 421 370 osc_env_pre 0;
#X obj 102 51 inlet;
#X obj 102 248 outlet;
#X obj 170 51 inlet;
#X msg 102 211 \$5 env \$1 \$2 \$3 \$4;
#X obj 170 97 unpack f f f f;
#X obj 102 176 pack f f f f f;
#X connect 0 0 5 4;
#X connect 2 0 4 0;
#X connect 3 0 1 0;
#X connect 4 0 5 0;
#X connect 4 1 5 1;
#X connect 4 2 5 2;
#X connect 4 3 5 3;
#X connect 5 0 3 0;
#X restore 962 255 pd osc_env_pre;
#N canvas 0 23 450 300 osc_ratio_lvl 0;
#X obj 56 34 inlet;
#X obj 126 34 inlet;
#X obj 62 252 outlet;
#X obj 198 34 inlet;
#X obj 62 113 pack f f;
#X obj 182 113 pack f f;
#X msg 62 159 \$2 ratio \$1;
#X msg 182 159 \$2 level \$1;
#X connect 0 0 4 1;
#X connect 0 0 5 1;
#X connect 1 0 4 0;
#X connect 3 0 5 0;
#X connect 4 0 6 0;
#X connect 5 0 7 0;
#X connect 6 0 2 0;
#X connect 7 0 2 0;
#X restore 570 360 pd osc_ratio_lvl;
#N canvas 0 23 450 300 osc_ratio_lvl 0;
#X obj 56 34 inlet;
#X obj 126 34 inlet;
#X obj 62 252 outlet;
#X obj 198 34 inlet;
#X obj 62 113 pack f f;
#X obj 182 113 pack f f;
#X msg 62 159 \$2 ratio \$1;
#X msg 182 159 \$2 level \$1;
#X connect 0 0 4 1;
#X connect 0 0 5 1;
#X connect 1 0 4 0;
#X connect 3 0 5 0;
#X connect 4 0 6 0;
#X connect 5 0 7 0;
#X connect 6 0 2 0;
#X connect 7 0 2 0;
#X restore 836 254 pd osc_ratio_lvl;
#X msg 679 333 1;
#X msg 570 307 3;
#X msg 836 206 4;
#X msg 1155 343 1;
#N canvas 0 23 421 370 osc_env_pre 0;
#X obj 102 51 inlet;
#X obj 102 248 outlet;
#X obj 170 51 inlet;
#X msg 102 211 \$5 env \$1 \$2 \$3 \$4;
#X obj 170 97 unpack f f f f;
#X obj 102 176 pack f f f f f;
#X connect 0 0 5 4;
#X connect 2 0 4 0;
#X connect 3 0 1 0;
#X connect 4 0 5 0;
#X connect 4 1 5 1;
#X connect 4 2 5 2;
#X connect 4 3 5 3;
#X connect 5 0 3 0;
#X restore 1227 370 pd osc_env_pre;
#N canvas 0 23 421 370 osc_env_pre 0;
#X obj 102 51 inlet;
#X obj 102 248 outlet;
#X obj 170 51 inlet;
#X msg 102 211 \$5 env \$1 \$2 \$3 \$4;
#X obj 170 97 unpack f f f f;
#X obj 102 176 pack f f f f f;
#X connect 0 0 5 4;
#X connect 2 0 4 0;
#X connect 3 0 1 0;
#X connect 4 0 5 0;
#X connect 4 1 5 1;
#X connect 4 2 5 2;
#X connect 4 3 5 3;
#X connect 5 0 3 0;
#X restore 1264 265 pd osc_env_pre;
#N canvas 0 23 450 300 osc_ratio_lvl 0;
#X obj 56 34 inlet;
#X obj 126 34 inlet;
#X obj 62 252 outlet;
#X obj 198 34 inlet;
#X obj 62 113 pack f f;
#X obj 182 113 pack f f;
#X msg 62 159 \$2 ratio \$1;
#X msg 182 159 \$2 level \$1;
#X connect 0 0 4 1;
#X connect 0 0 5 1;
#X connect 1 0 4 0;
#X connect 3 0 5 0;
#X connect 4 0 6 0;
#X connect 5 0 7 0;
#X connect 6 0 2 0;
#X connect 7 0 2 0;
#X restore 1101 370 pd osc_ratio_lvl;
#N canvas 0 23 450 300 osc_ratio_lvl 0;
#X obj 56 34 inlet;
#X obj 126 34 inlet;
#X obj 62 252 outlet;
#X obj 198 34 inlet;
#X obj 62 113 pack f f;
#X obj 182 113 pack f f;
#X msg 62 159 \$2 ratio \$1;
#X msg 182 159 \$2 level \$1;
#X connect 0 0 4 1;
#X connect 0 0 5 1;
#X connect 1 0 4 0;
#X connect 3 0 5 0;
#X connect 4 0 6 0;
#X connect 5 0 7 0;
#X connect 6 0 2 0;
#X connect 7 0 2 0;
#X restore 1138 264 pd osc_ratio_lvl;
#X msg 1210 343 1;
#X msg 1247 238 1;
#X msg 1192 238 1;
#X msg 1101 317 5;
#X msg 1138 216 6;
#X msg 94 333 0.5;
#X msg 188 333 1166 9 60 1080;
#X msg 359 228 0.5;
#X msg 454 228 5 90 80 1100;
#X msg 624 333 0.5;
#X msg 718 333 1460 180 18 790;
#X msg 890 228 6;
#X msg 945 228 0.32;
#X msg 985 228 5 394 56 1050;
#X msg 1249 343 5 1150 50 1720;
#X msg 1287 238 5 1470 80 2140;
#X connect 0 0 10 0;
#X connect 2 0 4 0;
#X connect 2 0 6 0;
#X connect 3 0 5 0;
#X connect 3 0 7 0;
#X connect 4 0 1 0;
#X connect 5 0 1 0;
#X connect 6 0 1 0;
#X connect 7 0 1 0;
#X connect 8 0 6 2;
#X connect 9 0 7 2;
#X connect 10 0 2 0;
#X connect 10 0 28 0;
#X connect 10 0 8 0;
#X connect 10 0 29 0;
#X connect 10 1 3 0;
#X connect 10 1 30 0;
#X connect 10 1 9 0;
#X connect 10 1 31 0;
#X connect 10 2 16 0;
#X connect 10 2 32 0;
#X connect 10 2 15 0;
#X connect 10 2 33 0;
#X connect 10 3 17 0;
#X connect 10 3 34 0;
#X connect 10 3 35 0;
#X connect 10 3 36 0;
#X connect 10 4 26 0;
#X connect 10 4 18 0;
#X connect 10 4 23 0;
#X connect 10 4 37 0;
#X connect 10 5 27 0;
#X connect 10 5 25 0;
#X connect 10 5 24 0;
#X connect 10 5 38 0;
#X connect 11 0 1 0;
#X connect 12 0 1 0;
#X connect 13 0 1 0;
#X connect 14 0 1 0;
#X connect 15 0 13 2;
#X connect 16 0 11 0;
#X connect 16 0 13 0;
#X connect 17 0 12 0;
#X connect 17 0 14 0;
#X connect 18 0 21 1;
#X connect 19 0 1 0;
#X connect 20 0 1 0;
#X connect 21 0 1 0;
#X connect 22 0 1 0;
#X connect 23 0 21 2;
#X connect 24 0 22 2;
#X connect 25 0 22 1;
#X connect 26 0 19 0;
#X connect 26 0 21 0;
#X connect 27 0 20 0;
#X connect 27 0 22 0;
#X connect 28 0 6 1;
#X connect 29 0 4 1;
#X connect 30 0 7 1;
#X connect 31 0 5 1;
#X connect 32 0 13 1;
#X connect 33 0 11 1;
#X connect 34 0 14 1;
#X connect 35 0 14 2;
#X connect 36 0 12 1;
#X connect 37 0 19 1;
#X connect 38 0 20 1;
#X restore 213 169 pd osc_preset_2;
#X msg 180 169 17;
#X msg 501 445 0.1;
#X msg 336 169 5;
#N canvas 45 51 1390 750 osc_preset_3 0;
#X obj 40 19 inlet;
#X obj 698 583 outlet;
#X msg 40 307 1;
#X msg 305 206 2;
#N canvas 0 23 421 370 osc_env_pre 0;
#X obj 102 51 inlet;
#X obj 102 248 outlet;
#X obj 170 51 inlet;
#X msg 102 211 \$5 env \$1 \$2 \$3 \$4;
#X obj 170 97 unpack f f f f;
#X obj 102 176 pack f f f f f;
#X connect 0 0 5 4;
#X connect 2 0 4 0;
#X connect 3 0 1 0;
#X connect 4 0 5 0;
#X connect 4 1 5 1;
#X connect 4 2 5 2;
#X connect 4 3 5 3;
#X connect 5 0 3 0;
#X restore 166 360 pd osc_env_pre;
#N canvas 0 23 421 370 osc_env_pre 0;
#X obj 102 51 inlet;
#X obj 102 248 outlet;
#X obj 170 51 inlet;
#X msg 102 211 \$5 env \$1 \$2 \$3 \$4;
#X obj 170 97 unpack f f f f;
#X obj 102 176 pack f f f f f;
#X connect 0 0 5 4;
#X connect 2 0 4 0;
#X connect 3 0 1 0;
#X connect 4 0 5 0;
#X connect 4 1 5 1;
#X connect 4 2 5 2;
#X connect 4 3 5 3;
#X connect 5 0 3 0;
#X restore 431 255 pd osc_env_pre;
#N canvas 0 23 450 300 osc_ratio_lvl 0;
#X obj 56 34 inlet;
#X obj 126 34 inlet;
#X obj 62 252 outlet;
#X obj 198 34 inlet;
#X obj 62 113 pack f f;
#X obj 182 113 pack f f;
#X msg 62 159 \$2 ratio \$1;
#X msg 182 159 \$2 level \$1;
#X connect 0 0 4 1;
#X connect 0 0 5 1;
#X connect 1 0 4 0;
#X connect 3 0 5 0;
#X connect 4 0 6 0;
#X connect 5 0 7 0;
#X connect 6 0 2 0;
#X connect 7 0 2 0;
#X restore 40 360 pd osc_ratio_lvl;
#N canvas 0 23 450 300 osc_ratio_lvl 0;
#X obj 56 34 inlet;
#X obj 126 34 inlet;
#X obj 62 252 outlet;
#X obj 198 34 inlet;
#X obj 62 113 pack f f;
#X obj 182 113 pack f f;
#X msg 62 159 \$2 ratio \$1;
#X msg 182 159 \$2 level \$1;
#X connect 0 0 4 1;
#X connect 0 0 5 1;
#X connect 1 0 4 0;
#X connect 3 0 5 0;
#X connect 4 0 6 0;
#X connect 5 0 7 0;
#X connect 6 0 2 0;
#X connect 7 0 2 0;
#X restore 305 254 pd osc_ratio_lvl;
#X msg 414 228 1;
#X obj 40 42 t b b b b b b, f 190;
#N canvas 0 23 421 370 osc_env_pre 0;
#X obj 102 51 inlet;
#X obj 102 248 outlet;
#X obj 170 51 inlet;
#X msg 102 211 \$5 env \$1 \$2 \$3 \$4;
#X obj 170 97 unpack f f f f;
#X obj 102 176 pack f f f f f;
#X connect 0 0 5 4;
#X connect 2 0 4 0;
#X connect 3 0 1 0;
#X connect 4 0 5 0;
#X connect 4 1 5 1;
#X connect 4 2 5 2;
#X connect 4 3 5 3;
#X connect 5 0 3 0;
#X restore 696 360 pd osc_env_pre;
#N canvas 0 23 421 370 osc_env_pre 0;
#X obj 102 51 inlet;
#X obj 102 248 outlet;
#X obj 170 51 inlet;
#X msg 102 211 \$5 env \$1 \$2 \$3 \$4;
#X obj 170 97 unpack f f f f;
#X obj 102 176 pack f f f f f;
#X connect 0 0 5 4;
#X connect 2 0 4 0;
#X connect 3 0 1 0;
#X connect 4 0 5 0;
#X connect 4 1 5 1;
#X connect 4 2 5 2;
#X connect 4 3 5 3;
#X connect 5 0 3 0;
#X restore 962 255 pd osc_env_pre;
#N canvas 0 23 450 300 osc_ratio_lvl 0;
#X obj 56 34 inlet;
#X obj 126 34 inlet;
#X obj 62 252 outlet;
#X obj 198 34 inlet;
#X obj 62 113 pack f f;
#X obj 182 113 pack f f;
#X msg 62 159 \$2 ratio \$1;
#X msg 182 159 \$2 level \$1;
#X connect 0 0 4 1;
#X connect 0 0 5 1;
#X connect 1 0 4 0;
#X connect 3 0 5 0;
#X connect 4 0 6 0;
#X connect 5 0 7 0;
#X connect 6 0 2 0;
#X connect 7 0 2 0;
#X restore 570 360 pd osc_ratio_lvl;
#N canvas 0 23 450 300 osc_ratio_lvl 0;
#X obj 56 34 inlet;
#X obj 126 34 inlet;
#X obj 62 252 outlet;
#X obj 198 34 inlet;
#X obj 62 113 pack f f;
#X obj 182 113 pack f f;
#X msg 62 159 \$2 ratio \$1;
#X msg 182 159 \$2 level \$1;
#X connect 0 0 4 1;
#X connect 0 0 5 1;
#X connect 1 0 4 0;
#X connect 3 0 5 0;
#X connect 4 0 6 0;
#X connect 5 0 7 0;
#X connect 6 0 2 0;
#X connect 7 0 2 0;
#X restore 836 254 pd osc_ratio_lvl;
#X msg 570 307 3;
#X msg 836 206 4;
#N canvas 0 23 421 370 osc_env_pre 0;
#X obj 102 51 inlet;
#X obj 102 248 outlet;
#X obj 170 51 inlet;
#X msg 102 211 \$5 env \$1 \$2 \$3 \$4;
#X obj 170 97 unpack f f f f;
#X obj 102 176 pack f f f f f;
#X connect 0 0 5 4;
#X connect 2 0 4 0;
#X connect 3 0 1 0;
#X connect 4 0 5 0;
#X connect 4 1 5 1;
#X connect 4 2 5 2;
#X connect 4 3 5 3;
#X connect 5 0 3 0;
#X restore 1227 370 pd osc_env_pre;
#N canvas 0 23 421 370 osc_env_pre 0;
#X obj 102 51 inlet;
#X obj 102 248 outlet;
#X obj 170 51 inlet;
#X msg 102 211 \$5 env \$1 \$2 \$3 \$4;
#X obj 170 97 unpack f f f f;
#X obj 102 176 pack f f f f f;
#X connect 0 0 5 4;
#X connect 2 0 4 0;
#X connect 3 0 1 0;
#X connect 4 0 5 0;
#X connect 4 1 5 1;
#X connect 4 2 5 2;
#X connect 4 3 5 3;
#X connect 5 0 3 0;
#X restore 1264 265 pd osc_env_pre;
#N canvas 0 23 450 300 osc_ratio_lvl 0;
#X obj 56 34 inlet;
#X obj 126 34 inlet;
#X obj 62 252 outlet;
#X obj 198 34 inlet;
#X obj 62 113 pack f f;
#X obj 182 113 pack f f;
#X msg 62 159 \$2 ratio \$1;
#X msg 182 159 \$2 level \$1;
#X connect 0 0 4 1;
#X connect 0 0 5 1;
#X connect 1 0 4 0;
#X connect 3 0 5 0;
#X connect 4 0 6 0;
#X connect 5 0 7 0;
#X connect 6 0 2 0;
#X connect 7 0 2 0;
#X restore 1101 370 pd osc_ratio_lvl;
#N canvas 0 23 450 300 osc_ratio_lvl 0;
#X obj 56 34 inlet;
#X obj 126 34 inlet;
#X obj 62 252 outlet;
#X obj 198 34 inlet;
#X obj 62 113 pack f f;
#X obj 182 113 pack f f;
#X msg 62 159 \$2 ratio \$1;
#X msg 182 159 \$2 level \$1;
#X connect 0 0 4 1;
#X connect 0 0 5 1;
#X connect 1 0 4 0;
#X connect 3 0 5 0;
#X connect 4 0 6 0;
#X connect 5 0 7 0;
#X connect 6 0 2 0;
#X connect 7 0 2 0;
#X restore 1138 264 pd osc_ratio_lvl;
#X msg 1101 317 5;
#X msg 1138 216 6;
#X msg 359 228 0.5;
#X msg 624 333 0.5;
#X msg 94 333 5;
#X msg 149 333 0.12;
#X msg 188 333 5 0 30 1600;
#X msg 454 228 560 60 48 1190;
#X msg 679 333 0.8;
#X msg 718 333 5 1180 50 410;
#X msg 890 228 1;
#X msg 945 228 0.84;
#X msg 985 228 5 900 70 312;
#X msg 1155 343 2;
#X msg 1210 343 0.6;
#X msg 1249 343 5 640 7 984;
#X msg 1192 238 0.5;
#X msg 1247 238 0.9;
#X msg 1287 238 8 330 55 1200;
#X connect 0 0 9 0;
#X connect 2 0 4 0;
#X connect 2 0 6 0;
#X connect 3 0 5 0;
#X connect 3 0 7 0;
#X connect 4 0 1 0;
#X connect 5 0 1 0;
#X connect 6 0 1 0;
#X connect 7 0 1 0;
#X connect 8 0 7 2;
#X connect 9 0 2 0;
#X connect 9 0 24 0;
#X connect 9 0 25 0;
#X connect 9 0 26 0;
#X connect 9 1 3 0;
#X connect 9 1 22 0;
#X connect 9 1 8 0;
#X connect 9 1 27 0;
#X connect 9 2 14 0;
#X connect 9 2 23 0;
#X connect 9 2 28 0;
#X connect 9 2 29 0;
#X connect 9 3 15 0;
#X connect 9 3 30 0;
#X connect 9 3 31 0;
#X connect 9 3 32 0;
#X connect 9 4 20 0;
#X connect 9 4 33 0;
#X connect 9 4 34 0;
#X connect 9 4 35 0;
#X connect 9 5 21 0;
#X connect 9 5 36 0;
#X connect 9 5 37 0;
#X connect 9 5 38 0;
#X connect 10 0 1 0;
#X connect 11 0 1 0;
#X connect 12 0 1 0;
#X connect 13 0 1 0;
#X connect 14 0 10 0;
#X connect 14 0 12 0;
#X connect 15 0 11 0;
#X connect 15 0 13 0;
#X connect 16 0 1 0;
#X connect 17 0 1 0;
#X connect 18 0 1 0;
#X connect 19 0 1 0;
#X connect 20 0 16 0;
#X connect 20 0 18 0;
#X connect 21 0 17 0;
#X connect 21 0 19 0;
#X connect 22 0 7 1;
#X connect 23 0 12 1;
#X connect 24 0 6 1;
#X connect 25 0 6 2;
#X connect 26 0 4 1;
#X connect 27 0 5 1;
#X connect 28 0 12 2;
#X connect 29 0 10 1;
#X connect 30 0 13 1;
#X connect 31 0 13 2;
#X connect 32 0 11 1;
#X connect 33 0 18 1;
#X connect 34 0 18 2;
#X connect 35 0 16 1;
#X connect 36 0 19 1;
#X connect 37 0 19 2;
#X connect 38 0 17 1;
#X restore 369 169 pd osc_preset_3;
#N canvas 45 51 1390 750 osc_preset_4 0;
#X obj 40 19 inlet;
#X obj 698 583 outlet;
#X msg 40 307 1;
#X msg 305 206 2;
#N canvas 0 23 421 370 osc_env_pre 0;
#X obj 102 51 inlet;
#X obj 102 248 outlet;
#X obj 170 51 inlet;
#X msg 102 211 \$5 env \$1 \$2 \$3 \$4;
#X obj 170 97 unpack f f f f;
#X obj 102 176 pack f f f f f;
#X connect 0 0 5 4;
#X connect 2 0 4 0;
#X connect 3 0 1 0;
#X connect 4 0 5 0;
#X connect 4 1 5 1;
#X connect 4 2 5 2;
#X connect 4 3 5 3;
#X connect 5 0 3 0;
#X restore 166 360 pd osc_env_pre;
#N canvas 0 23 421 370 osc_env_pre 0;
#X obj 102 51 inlet;
#X obj 102 248 outlet;
#X obj 170 51 inlet;
#X msg 102 211 \$5 env \$1 \$2 \$3 \$4;
#X obj 170 97 unpack f f f f;
#X obj 102 176 pack f f f f f;
#X connect 0 0 5 4;
#X connect 2 0 4 0;
#X connect 3 0 1 0;
#X connect 4 0 5 0;
#X connect 4 1 5 1;
#X connect 4 2 5 2;
#X connect 4 3 5 3;
#X connect 5 0 3 0;
#X restore 431 255 pd osc_env_pre;
#N canvas 0 23 450 300 osc_ratio_lvl 0;
#X obj 56 34 inlet;
#X obj 126 34 inlet;
#X obj 62 252 outlet;
#X obj 198 34 inlet;
#X obj 62 113 pack f f;
#X obj 182 113 pack f f;
#X msg 62 159 \$2 ratio \$1;
#X msg 182 159 \$2 level \$1;
#X connect 0 0 4 1;
#X connect 0 0 5 1;
#X connect 1 0 4 0;
#X connect 3 0 5 0;
#X connect 4 0 6 0;
#X connect 5 0 7 0;
#X connect 6 0 2 0;
#X connect 7 0 2 0;
#X restore 40 360 pd osc_ratio_lvl;
#N canvas 0 23 450 300 osc_ratio_lvl 0;
#X obj 56 34 inlet;
#X obj 126 34 inlet;
#X obj 62 252 outlet;
#X obj 198 34 inlet;
#X obj 62 113 pack f f;
#X obj 182 113 pack f f;
#X msg 62 159 \$2 ratio \$1;
#X msg 182 159 \$2 level \$1;
#X connect 0 0 4 1;
#X connect 0 0 5 1;
#X connect 1 0 4 0;
#X connect 3 0 5 0;
#X connect 4 0 6 0;
#X connect 5 0 7 0;
#X connect 6 0 2 0;
#X connect 7 0 2 0;
#X restore 305 254 pd osc_ratio_lvl;
#X msg 414 228 1;
#X obj 40 42 t b b b b b b, f 190;
#N canvas 0 23 421 370 osc_env_pre 0;
#X obj 102 51 inlet;
#X obj 102 248 outlet;
#X obj 170 51 inlet;
#X msg 102 211 \$5 env \$1 \$2 \$3 \$4;
#X obj 170 97 unpack f f f f;
#X obj 102 176 pack f f f f f;
#X connect 0 0 5 4;
#X connect 2 0 4 0;
#X connect 3 0 1 0;
#X connect 4 0 5 0;
#X connect 4 1 5 1;
#X connect 4 2 5 2;
#X connect 4 3 5 3;
#X connect 5 0 3 0;
#X restore 696 360 pd osc_env_pre;
#N canvas 0 23 421 370 osc_env_pre 0;
#X obj 102 51 inlet;
#X obj 102 248 outlet;
#X obj 170 51 inlet;
#X msg 102 211 \$5 env \$1 \$2 \$3 \$4;
#X obj 170 97 unpack f f f f;
#X obj 102 176 pack f f f f f;
#X connect 0 0 5 4;
#X connect 2 0 4 0;
#X connect 3 0 1 0;
#X connect 4 0 5 0;
#X connect 4 1 5 1;
#X connect 4 2 5 2;
#X connect 4 3 5 3;
#X connect 5 0 3 0;
#X restore 962 255 pd osc_env_pre;
#N canvas 0 23 450 300 osc_ratio_lvl 0;
#X obj 56 34 inlet;
#X obj 126 34 inlet;
#X obj 62 252 outlet;
#X obj 198 34 inlet;
#X obj 62 113 pack f f;
#X obj 182 113 pack f f;
#X msg 62 159 \$2 ratio \$1;
#X msg 182 159 \$2 level \$1;
#X connect 0 0 4 1;
#X connect 0 0 5 1;
#X connect 1 0 4 0;
#X connect 3 0 5 0;
#X connect 4 0 6 0;
#X connect 5 0 7 0;
#X connect 6 0 2 0;
#X connect 7 0 2 0;
#X restore 570 360 pd osc_ratio_lvl;
#N canvas 0 23 450 300 osc_ratio_lvl 0;
#X obj 56 34 inlet;
#X obj 126 34 inlet;
#X obj 62 252 outlet;
#X obj 198 34 inlet;
#X obj 62 113 pack f f;
#X obj 182 113 pack f f;
#X msg 62 159 \$2 ratio \$1;
#X msg 182 159 \$2 level \$1;
#X connect 0 0 4 1;
#X connect 0 0 5 1;
#X connect 1 0 4 0;
#X connect 3 0 5 0;
#X connect 4 0 6 0;
#X connect 5 0 7 0;
#X connect 6 0 2 0;
#X connect 7 0 2 0;
#X restore 836 254 pd osc_ratio_lvl;
#X msg 570 307 3;
#X msg 836 206 4;
#N canvas 0 23 421 370 osc_env_pre 0;
#X obj 102 51 inlet;
#X obj 102 248 outlet;
#X obj 170 51 inlet;
#X msg 102 211 \$5 env \$1 \$2 \$3 \$4;
#X obj 170 97 unpack f f f f;
#X obj 102 176 pack f f f f f;
#X connect 0 0 5 4;
#X connect 2 0 4 0;
#X connect 3 0 1 0;
#X connect 4 0 5 0;
#X connect 4 1 5 1;
#X connect 4 2 5 2;
#X connect 4 3 5 3;
#X connect 5 0 3 0;
#X restore 1227 370 pd osc_env_pre;
#N canvas 0 23 421 370 osc_env_pre 0;
#X obj 102 51 inlet;
#X obj 102 248 outlet;
#X obj 170 51 inlet;
#X msg 102 211 \$5 env \$1 \$2 \$3 \$4;
#X obj 170 97 unpack f f f f;
#X obj 102 176 pack f f f f f;
#X connect 0 0 5 4;
#X connect 2 0 4 0;
#X connect 3 0 1 0;
#X connect 4 0 5 0;
#X connect 4 1 5 1;
#X connect 4 2 5 2;
#X connect 4 3 5 3;
#X connect 5 0 3 0;
#X restore 1264 265 pd osc_env_pre;
#N canvas 0 23 450 300 osc_ratio_lvl 0;
#X obj 56 34 inlet;
#X obj 126 34 inlet;
#X obj 62 252 outlet;
#X obj 198 34 inlet;
#X obj 62 113 pack f f;
#X obj 182 113 pack f f;
#X msg 62 159 \$2 ratio \$1;
#X msg 182 159 \$2 level \$1;
#X connect 0 0 4 1;
#X connect 0 0 5 1;
#X connect 1 0 4 0;
#X connect 3 0 5 0;
#X connect 4 0 6 0;
#X connect 5 0 7 0;
#X connect 6 0 2 0;
#X connect 7 0 2 0;
#X restore 1101 370 pd osc_ratio_lvl;
#N canvas 0 23 450 300 osc_ratio_lvl 0;
#X obj 56 34 inlet;
#X obj 126 34 inlet;
#X obj 62 252 outlet;
#X obj 198 34 inlet;
#X obj 62 113 pack f f;
#X obj 182 113 pack f f;
#X msg 62 159 \$2 ratio \$1;
#X msg 182 159 \$2 level \$1;
#X connect 0 0 4 1;
#X connect 0 0 5 1;
#X connect 1 0 4 0;
#X connect 3 0 5 0;
#X connect 4 0 6 0;
#X connect 5 0 7 0;
#X connect 6 0 2 0;
#X connect 7 0 2 0;
#X restore 1138 264 pd osc_ratio_lvl;
#X msg 1101 317 5;
#X msg 1138 216 6;
#X msg 359 228 0.5;
#X msg 890 228 1;
#X msg 94 333 0.5;
#X msg 149 333 1;
#X msg 188 333 5 990 90 508;
#X msg 454 228 1800 266 30 1355;
#X msg 624 333 1;
#X msg 679 333 0.25;
#X msg 718 333 5 170 20 2850;
#X msg 945 228 0.45;
#X msg 985 228 55 360 82 1870;
#X msg 1155 343 7;
#X msg 1210 343 1;
#X msg 1249 343 5 1380 2 888;
#X msg 1192 238 7;
#X msg 1247 238 0.14;
#X msg 1287 238 5 1950 70 1170;
#X connect 0 0 9 0;
#X connect 2 0 4 0;
#X connect 2 0 6 0;
#X connect 3 0 5 0;
#X connect 3 0 7 0;
#X connect 4 0 1 0;
#X connect 5 0 1 0;
#X connect 6 0 1 0;
#X connect 7 0 1 0;
#X connect 8 0 7 2;
#X connect 9 0 2 0;
#X connect 9 0 24 0;
#X connect 9 0 25 0;
#X connect 9 0 26 0;
#X connect 9 1 3 0;
#X connect 9 1 22 0;
#X connect 9 1 8 0;
#X connect 9 1 27 0;
#X connect 9 2 14 0;
#X connect 9 2 28 0;
#X connect 9 2 29 0;
#X connect 9 2 30 0;
#X connect 9 3 15 0;
#X connect 9 3 23 0;
#X connect 9 3 31 0;
#X connect 9 3 32 0;
#X connect 9 4 20 0;
#X connect 9 4 33 0;
#X connect 9 4 34 0;
#X connect 9 4 35 0;
#X connect 9 5 21 0;
#X connect 9 5 36 0;
#X connect 9 5 37 0;
#X connect 9 5 38 0;
#X connect 10 0 1 0;
#X connect 11 0 1 0;
#X connect 12 0 1 0;
#X connect 13 0 1 0;
#X connect 14 0 10 0;
#X connect 14 0 12 0;
#X connect 15 0 11 0;
#X connect 15 0 13 0;
#X connect 16 0 1 0;
#X connect 17 0 1 0;
#X connect 18 0 1 0;
#X connect 19 0 1 0;
#X connect 20 0 16 0;
#X connect 20 0 18 0;
#X connect 21 0 17 0;
#X connect 21 0 19 0;
#X connect 22 0 7 1;
#X connect 23 0 13 1;
#X connect 24 0 6 1;
#X connect 25 0 6 2;
#X connect 26 0 4 1;
#X connect 27 0 5 1;
#X connect 28 0 12 1;
#X connect 29 0 12 2;
#X connect 30 0 10 1;
#X connect 31 0 13 2;
#X connect 32 0 11 1;
#X connect 33 0 18 1;
#X connect 34 0 18 2;
#X connect 35 0 16 1;
#X connect 36 0 19 1;
#X connect 37 0 19 2;
#X connect 38 0 17 1;
#X restore 528 169 pd osc_preset_4;
#X msg 495 169 25;
#X msg 568 445 0.94;
#X msg 655 169 21;
#N canvas 49 81 1390 750 osc_preset_5 0;
#X obj 40 19 inlet;
#X obj 698 583 outlet;
#X msg 40 307 1;
#X msg 305 206 2;
#N canvas 0 23 421 370 osc_env_pre 0;
#X obj 102 51 inlet;
#X obj 102 248 outlet;
#X obj 170 51 inlet;
#X msg 102 211 \$5 env \$1 \$2 \$3 \$4;
#X obj 170 97 unpack f f f f;
#X obj 102 176 pack f f f f f;
#X connect 0 0 5 4;
#X connect 2 0 4 0;
#X connect 3 0 1 0;
#X connect 4 0 5 0;
#X connect 4 1 5 1;
#X connect 4 2 5 2;
#X connect 4 3 5 3;
#X connect 5 0 3 0;
#X restore 166 360 pd osc_env_pre;
#N canvas 0 23 421 370 osc_env_pre 0;
#X obj 102 51 inlet;
#X obj 102 248 outlet;
#X obj 170 51 inlet;
#X msg 102 211 \$5 env \$1 \$2 \$3 \$4;
#X obj 170 97 unpack f f f f;
#X obj 102 176 pack f f f f f;
#X connect 0 0 5 4;
#X connect 2 0 4 0;
#X connect 3 0 1 0;
#X connect 4 0 5 0;
#X connect 4 1 5 1;
#X connect 4 2 5 2;
#X connect 4 3 5 3;
#X connect 5 0 3 0;
#X restore 431 255 pd osc_env_pre;
#N canvas 0 23 450 300 osc_ratio_lvl 0;
#X obj 56 34 inlet;
#X obj 126 34 inlet;
#X obj 62 252 outlet;
#X obj 198 34 inlet;
#X obj 62 113 pack f f;
#X obj 182 113 pack f f;
#X msg 62 159 \$2 ratio \$1;
#X msg 182 159 \$2 level \$1;
#X connect 0 0 4 1;
#X connect 0 0 5 1;
#X connect 1 0 4 0;
#X connect 3 0 5 0;
#X connect 4 0 6 0;
#X connect 5 0 7 0;
#X connect 6 0 2 0;
#X connect 7 0 2 0;
#X restore 40 360 pd osc_ratio_lvl;
#N canvas 0 23 450 300 osc_ratio_lvl 0;
#X obj 56 34 inlet;
#X obj 126 34 inlet;
#X obj 62 252 outlet;
#X obj 198 34 inlet;
#X obj 62 113 pack f f;
#X obj 182 113 pack f f;
#X msg 62 159 \$2 ratio \$1;
#X msg 182 159 \$2 level \$1;
#X connect 0 0 4 1;
#X connect 0 0 5 1;
#X connect 1 0 4 0;
#X connect 3 0 5 0;
#X connect 4 0 6 0;
#X connect 5 0 7 0;
#X connect 6 0 2 0;
#X connect 7 0 2 0;
#X restore 305 254 pd osc_ratio_lvl;
#X obj 40 42 t b b b b b b, f 190;
#N canvas 0 23 421 370 osc_env_pre 0;
#X obj 102 51 inlet;
#X obj 102 248 outlet;
#X obj 170 51 inlet;
#X msg 102 211 \$5 env \$1 \$2 \$3 \$4;
#X obj 170 97 unpack f f f f;
#X obj 102 176 pack f f f f f;
#X connect 0 0 5 4;
#X connect 2 0 4 0;
#X connect 3 0 1 0;
#X connect 4 0 5 0;
#X connect 4 1 5 1;
#X connect 4 2 5 2;
#X connect 4 3 5 3;
#X connect 5 0 3 0;
#X restore 696 360 pd osc_env_pre;
#N canvas 0 23 421 370 osc_env_pre 0;
#X obj 102 51 inlet;
#X obj 102 248 outlet;
#X obj 170 51 inlet;
#X msg 102 211 \$5 env \$1 \$2 \$3 \$4;
#X obj 170 97 unpack f f f f;
#X obj 102 176 pack f f f f f;
#X connect 0 0 5 4;
#X connect 2 0 4 0;
#X connect 3 0 1 0;
#X connect 4 0 5 0;
#X connect 4 1 5 1;
#X connect 4 2 5 2;
#X connect 4 3 5 3;
#X connect 5 0 3 0;
#X restore 962 255 pd osc_env_pre;
#N canvas 0 23 450 300 osc_ratio_lvl 0;
#X obj 56 34 inlet;
#X obj 126 34 inlet;
#X obj 62 252 outlet;
#X obj 198 34 inlet;
#X obj 62 113 pack f f;
#X obj 182 113 pack f f;
#X msg 62 159 \$2 ratio \$1;
#X msg 182 159 \$2 level \$1;
#X connect 0 0 4 1;
#X connect 0 0 5 1;
#X connect 1 0 4 0;
#X connect 3 0 5 0;
#X connect 4 0 6 0;
#X connect 5 0 7 0;
#X connect 6 0 2 0;
#X connect 7 0 2 0;
#X restore 570 360 pd osc_ratio_lvl;
#N canvas 0 23 450 300 osc_ratio_lvl 0;
#X obj 56 34 inlet;
#X obj 126 34 inlet;
#X obj 62 252 outlet;
#X obj 198 34 inlet;
#X obj 62 113 pack f f;
#X obj 182 113 pack f f;
#X msg 62 159 \$2 ratio \$1;
#X msg 182 159 \$2 level \$1;
#X connect 0 0 4 1;
#X connect 0 0 5 1;
#X connect 1 0 4 0;
#X connect 3 0 5 0;
#X connect 4 0 6 0;
#X connect 5 0 7 0;
#X connect 6 0 2 0;
#X connect 7 0 2 0;
#X restore 836 254 pd osc_ratio_lvl;
#X msg 570 307 3;
#X msg 836 206 4;
#N canvas 0 23 421 370 osc_env_pre 0;
#X obj 102 51 inlet;
#X obj 102 248 outlet;
#X obj 170 51 inlet;
#X msg 102 211 \$5 env \$1 \$2 \$3 \$4;
#X obj 170 97 unpack f f f f;
#X obj 102 176 pack f f f f f;
#X connect 0 0 5 4;
#X connect 2 0 4 0;
#X connect 3 0 1 0;
#X connect 4 0 5 0;
#X connect 4 1 5 1;
#X connect 4 2 5 2;
#X connect 4 3 5 3;
#X connect 5 0 3 0;
#X restore 1227 370 pd osc_env_pre;
#N canvas 0 23 421 370 osc_env_pre 0;
#X obj 102 51 inlet;
#X obj 102 248 outlet;
#X obj 170 51 inlet;
#X msg 102 211 \$5 env \$1 \$2 \$3 \$4;
#X obj 170 97 unpack f f f f;
#X obj 102 176 pack f f f f f;
#X connect 0 0 5 4;
#X connect 2 0 4 0;
#X connect 3 0 1 0;
#X connect 4 0 5 0;
#X connect 4 1 5 1;
#X connect 4 2 5 2;
#X connect 4 3 5 3;
#X connect 5 0 3 0;
#X restore 1264 265 pd osc_env_pre;
#N canvas 0 23 450 300 osc_ratio_lvl 0;
#X obj 56 34 inlet;
#X obj 126 34 inlet;
#X obj 62 252 outlet;
#X obj 198 34 inlet;
#X obj 62 113 pack f f;
#X obj 182 113 pack f f;
#X msg 62 159 \$2 ratio \$1;
#X msg 182 159 \$2 level \$1;
#X connect 0 0 4 1;
#X connect 0 0 5 1;
#X connect 1 0 4 0;
#X connect 3 0 5 0;
#X connect 4 0 6 0;
#X connect 5 0 7 0;
#X connect 6 0 2 0;
#X connect 7 0 2 0;
#X restore 1101 370 pd osc_ratio_lvl;
#N canvas 0 23 450 300 osc_ratio_lvl 0;
#X obj 56 34 inlet;
#X obj 126 34 inlet;
#X obj 62 252 outlet;
#X obj 198 34 inlet;
#X obj 62 113 pack f f;
#X obj 182 113 pack f f;
#X msg 62 159 \$2 ratio \$1;
#X msg 182 159 \$2 level \$1;
#X connect 0 0 4 1;
#X connect 0 0 5 1;
#X connect 1 0 4 0;
#X connect 3 0 5 0;
#X connect 4 0 6 0;
#X connect 5 0 7 0;
#X connect 6 0 2 0;
#X connect 7 0 2 0;
#X restore 1138 264 pd osc_ratio_lvl;
#X msg 1101 317 5;
#X msg 1138 216 6;
#X msg 149 333 1;
#X msg 94 333 1;
#X msg 188 333 1800 0.24 52 55;
#X msg 359 228 3;
#X msg 414 228 0.8;
#X msg 454 228 5 0.3 30 460;
#X msg 624 333 0.5;
#X msg 679 333 1;
#X msg 718 333 5 2080 60 680;
#X msg 890 228 2;
#X msg 945 228 1;
#X msg 985 228 5 870 95 1014;
#X msg 1155 343 2;
#X msg 1210 343 0.2;
#X msg 1249 343 5 830 40 460;
#X msg 1192 238 0.5;
#X msg 1247 238 1;
#X msg 1287 238 5 2700 40 610;
#X connect 0 0 8 0;
#X connect 2 0 4 0;
#X connect 2 0 6 0;
#X connect 3 0 5 0;
#X connect 3 0 7 0;
#X connect 4 0 1 0;
#X connect 5 0 1 0;
#X connect 6 0 1 0;
#X connect 7 0 1 0;
#X connect 8 0 2 0;
#X connect 8 0 22 0;
#X connect 8 0 21 0;
#X connect 8 0 23 0;
#X connect 8 1 3 0;
#X connect 8 1 24 0;
#X connect 8 1 25 0;
#X connect 8 1 26 0;
#X connect 8 2 13 0;
#X connect 8 2 27 0;
#X connect 8 2 28 0;
#X connect 8 2 29 0;
#X connect 8 3 14 0;
#X connect 8 3 30 0;
#X connect 8 3 31 0;
#X connect 8 3 32 0;
#X connect 8 4 19 0;
#X connect 8 4 33 0;
#X connect 8 4 34 0;
#X connect 8 4 35 0;
#X connect 8 5 20 0;
#X connect 8 5 36 0;
#X connect 8 5 37 0;
#X connect 8 5 38 0;
#X connect 9 0 1 0;
#X connect 10 0 1 0;
#X connect 11 0 1 0;
#X connect 12 0 1 0;
#X connect 13 0 9 0;
#X connect 13 0 11 0;
#X connect 14 0 10 0;
#X connect 14 0 12 0;
#X connect 15 0 1 0;
#X connect 16 0 1 0;
#X connect 17 0 1 0;
#X connect 18 0 1 0;
#X connect 19 0 15 0;
#X connect 19 0 17 0;
#X connect 20 0 16 0;
#X connect 20 0 18 0;
#X connect 21 0 6 2;
#X connect 22 0 6 1;
#X connect 23 0 4 1;
#X connect 24 0 7 1;
#X connect 25 0 7 2;
#X connect 26 0 5 1;
#X connect 27 0 11 1;
#X connect 28 0 11 2;
#X connect 29 0 9 1;
#X connect 30 0 12 1;
#X connect 31 0 12 2;
#X connect 32 0 10 1;
#X connect 33 0 17 1;
#X connect 34 0 17 2;
#X connect 35 0 15 1;
#X connect 36 0 18 1;
#X connect 37 0 18 2;
#X connect 38 0 16 1;
#X restore 688 169 pd osc_preset_5;
#X msg 815 169 18;
#N canvas 49 81 1390 750 osc_preset_6 0;
#X obj 40 19 inlet;
#X obj 698 583 outlet;
#X msg 40 307 1;
#X msg 305 206 2;
#N canvas 0 23 421 370 osc_env_pre 0;
#X obj 102 51 inlet;
#X obj 102 248 outlet;
#X obj 170 51 inlet;
#X msg 102 211 \$5 env \$1 \$2 \$3 \$4;
#X obj 170 97 unpack f f f f;
#X obj 102 176 pack f f f f f;
#X connect 0 0 5 4;
#X connect 2 0 4 0;
#X connect 3 0 1 0;
#X connect 4 0 5 0;
#X connect 4 1 5 1;
#X connect 4 2 5 2;
#X connect 4 3 5 3;
#X connect 5 0 3 0;
#X restore 166 360 pd osc_env_pre;
#N canvas 0 23 421 370 osc_env_pre 0;
#X obj 102 51 inlet;
#X obj 102 248 outlet;
#X obj 170 51 inlet;
#X msg 102 211 \$5 env \$1 \$2 \$3 \$4;
#X obj 170 97 unpack f f f f;
#X obj 102 176 pack f f f f f;
#X connect 0 0 5 4;
#X connect 2 0 4 0;
#X connect 3 0 1 0;
#X connect 4 0 5 0;
#X connect 4 1 5 1;
#X connect 4 2 5 2;
#X connect 4 3 5 3;
#X connect 5 0 3 0;
#X restore 431 255 pd osc_env_pre;
#N canvas 0 23 450 300 osc_ratio_lvl 0;
#X obj 56 34 inlet;
#X obj 126 34 inlet;
#X obj 62 252 outlet;
#X obj 198 34 inlet;
#X obj 62 113 pack f f;
#X obj 182 113 pack f f;
#X msg 62 159 \$2 ratio \$1;
#X msg 182 159 \$2 level \$1;
#X connect 0 0 4 1;
#X connect 0 0 5 1;
#X connect 1 0 4 0;
#X connect 3 0 5 0;
#X connect 4 0 6 0;
#X connect 5 0 7 0;
#X connect 6 0 2 0;
#X connect 7 0 2 0;
#X restore 40 360 pd osc_ratio_lvl;
#N canvas 0 23 450 300 osc_ratio_lvl 0;
#X obj 56 34 inlet;
#X obj 126 34 inlet;
#X obj 62 252 outlet;
#X obj 198 34 inlet;
#X obj 62 113 pack f f;
#X obj 182 113 pack f f;
#X msg 62 159 \$2 ratio \$1;
#X msg 182 159 \$2 level \$1;
#X connect 0 0 4 1;
#X connect 0 0 5 1;
#X connect 1 0 4 0;
#X connect 3 0 5 0;
#X connect 4 0 6 0;
#X connect 5 0 7 0;
#X connect 6 0 2 0;
#X connect 7 0 2 0;
#X restore 305 254 pd osc_ratio_lvl;
#X obj 40 42 t b b b b b b, f 190;
#N canvas 0 23 421 370 osc_env_pre 0;
#X obj 102 51 inlet;
#X obj 102 248 outlet;
#X obj 170 51 inlet;
#X msg 102 211 \$5 env \$1 \$2 \$3 \$4;
#X obj 170 97 unpack f f f f;
#X obj 102 176 pack f f f f f;
#X connect 0 0 5 4;
#X connect 2 0 4 0;
#X connect 3 0 1 0;
#X connect 4 0 5 0;
#X connect 4 1 5 1;
#X connect 4 2 5 2;
#X connect 4 3 5 3;
#X connect 5 0 3 0;
#X restore 696 360 pd osc_env_pre;
#N canvas 0 23 421 370 osc_env_pre 0;
#X obj 102 51 inlet;
#X obj 102 248 outlet;
#X obj 170 51 inlet;
#X msg 102 211 \$5 env \$1 \$2 \$3 \$4;
#X obj 170 97 unpack f f f f;
#X obj 102 176 pack f f f f f;
#X connect 0 0 5 4;
#X connect 2 0 4 0;
#X connect 3 0 1 0;
#X connect 4 0 5 0;
#X connect 4 1 5 1;
#X connect 4 2 5 2;
#X connect 4 3 5 3;
#X connect 5 0 3 0;
#X restore 962 255 pd osc_env_pre;
#N canvas 0 23 450 300 osc_ratio_lvl 0;
#X obj 56 34 inlet;
#X obj 126 34 inlet;
#X obj 62 252 outlet;
#X obj 198 34 inlet;
#X obj 62 113 pack f f;
#X obj 182 113 pack f f;
#X msg 62 159 \$2 ratio \$1;
#X msg 182 159 \$2 level \$1;
#X connect 0 0 4 1;
#X connect 0 0 5 1;
#X connect 1 0 4 0;
#X connect 3 0 5 0;
#X connect 4 0 6 0;
#X connect 5 0 7 0;
#X connect 6 0 2 0;
#X connect 7 0 2 0;
#X restore 570 360 pd osc_ratio_lvl;
#N canvas 0 23 450 300 osc_ratio_lvl 0;
#X obj 56 34 inlet;
#X obj 126 34 inlet;
#X obj 62 252 outlet;
#X obj 198 34 inlet;
#X obj 62 113 pack f f;
#X obj 182 113 pack f f;
#X msg 62 159 \$2 ratio \$1;
#X msg 182 159 \$2 level \$1;
#X connect 0 0 4 1;
#X connect 0 0 5 1;
#X connect 1 0 4 0;
#X connect 3 0 5 0;
#X connect 4 0 6 0;
#X connect 5 0 7 0;
#X connect 6 0 2 0;
#X connect 7 0 2 0;
#X restore 836 254 pd osc_ratio_lvl;
#X msg 570 307 3;
#X msg 836 206 4;
#N canvas 0 23 421 370 osc_env_pre 0;
#X obj 102 51 inlet;
#X obj 102 248 outlet;
#X obj 170 51 inlet;
#X msg 102 211 \$5 env \$1 \$2 \$3 \$4;
#X obj 170 97 unpack f f f f;
#X obj 102 176 pack f f f f f;
#X connect 0 0 5 4;
#X connect 2 0 4 0;
#X connect 3 0 1 0;
#X connect 4 0 5 0;
#X connect 4 1 5 1;
#X connect 4 2 5 2;
#X connect 4 3 5 3;
#X connect 5 0 3 0;
#X restore 1227 370 pd osc_env_pre;
#N canvas 0 23 421 370 osc_env_pre 0;
#X obj 102 51 inlet;
#X obj 102 248 outlet;
#X obj 170 51 inlet;
#X msg 102 211 \$5 env \$1 \$2 \$3 \$4;
#X obj 170 97 unpack f f f f;
#X obj 102 176 pack f f f f f;
#X connect 0 0 5 4;
#X connect 2 0 4 0;
#X connect 3 0 1 0;
#X connect 4 0 5 0;
#X connect 4 1 5 1;
#X connect 4 2 5 2;
#X connect 4 3 5 3;
#X connect 5 0 3 0;
#X restore 1264 265 pd osc_env_pre;
#N canvas 0 23 450 300 osc_ratio_lvl 0;
#X obj 56 34 inlet;
#X obj 126 34 inlet;
#X obj 62 252 outlet;
#X obj 198 34 inlet;
#X obj 62 113 pack f f;
#X obj 182 113 pack f f;
#X msg 62 159 \$2 ratio \$1;
#X msg 182 159 \$2 level \$1;
#X connect 0 0 4 1;
#X connect 0 0 5 1;
#X connect 1 0 4 0;
#X connect 3 0 5 0;
#X connect 4 0 6 0;
#X connect 5 0 7 0;
#X connect 6 0 2 0;
#X connect 7 0 2 0;
#X restore 1101 370 pd osc_ratio_lvl;
#N canvas 0 23 450 300 osc_ratio_lvl 0;
#X obj 56 34 inlet;
#X obj 126 34 inlet;
#X obj 62 252 outlet;
#X obj 198 34 inlet;
#X obj 62 113 pack f f;
#X obj 182 113 pack f f;
#X msg 62 159 \$2 ratio \$1;
#X msg 182 159 \$2 level \$1;
#X connect 0 0 4 1;
#X connect 0 0 5 1;
#X connect 1 0 4 0;
#X connect 3 0 5 0;
#X connect 4 0 6 0;
#X connect 5 0 7 0;
#X connect 6 0 2 0;
#X connect 7 0 2 0;
#X restore 1138 264 pd osc_ratio_lvl;
#X msg 1101 317 5;
#X msg 1138 216 6;
#X msg 149 333 1;
#X msg 94 333 0.5;
#X msg 188 333 5 0 17 160;
#X msg 359 228 7;
#X msg 414 228 1;
#X msg 454 228 10 460 30 1600;
#X msg 624 333 4;
#X msg 679 333 1;
#X msg 718 333 5 760 53 1520;
#X msg 890 228 1;
#X msg 945 228 0.26;
#X msg 985 228 1730 1090 42 990;
#X msg 1155 343 1;
#X msg 1210 343 1;
#X msg 1249 343 5 404 80 356;
#X msg 1192 238 1;
#X msg 1247 238 1;
#X msg 1287 238 5 190 90 74;
#X connect 0 0 8 0;
#X connect 2 0 4 0;
#X connect 2 0 6 0;
#X connect 3 0 5 0;
#X connect 3 0 7 0;
#X connect 4 0 1 0;
#X connect 5 0 1 0;
#X connect 6 0 1 0;
#X connect 7 0 1 0;
#X connect 8 0 2 0;
#X connect 8 0 22 0;
#X connect 8 0 21 0;
#X connect 8 0 23 0;
#X connect 8 1 3 0;
#X connect 8 1 24 0;
#X connect 8 1 25 0;
#X connect 8 1 26 0;
#X connect 8 2 13 0;
#X connect 8 2 27 0;
#X connect 8 2 28 0;
#X connect 8 2 29 0;
#X connect 8 3 14 0;
#X connect 8 3 30 0;
#X connect 8 3 31 0;
#X connect 8 3 32 0;
#X connect 8 4 19 0;
#X connect 8 4 33 0;
#X connect 8 4 34 0;
#X connect 8 4 35 0;
#X connect 8 5 20 0;
#X connect 8 5 36 0;
#X connect 8 5 37 0;
#X connect 8 5 38 0;
#X connect 9 0 1 0;
#X connect 10 0 1 0;
#X connect 11 0 1 0;
#X connect 12 0 1 0;
#X connect 13 0 9 0;
#X connect 13 0 11 0;
#X connect 14 0 10 0;
#X connect 14 0 12 0;
#X connect 15 0 1 0;
#X connect 16 0 1 0;
#X connect 17 0 1 0;
#X connect 18 0 1 0;
#X connect 19 0 15 0;
#X connect 19 0 17 0;
#X connect 20 0 16 0;
#X connect 20 0 18 0;
#X connect 21 0 6 2;
#X connect 22 0 6 1;
#X connect 23 0 4 1;
#X connect 24 0 7 1;
#X connect 25 0 7 2;
#X connect 26 0 5 1;
#X connect 27 0 11 1;
#X connect 28 0 11 2;
#X connect 29 0 9 1;
#X connect 30 0 12 1;
#X connect 31 0 12 2;
#X connect 32 0 10 1;
#X connect 33 0 17 1;
#X connect 34 0 17 2;
#X connect 35 0 15 1;
#X connect 36 0 18 1;
#X connect 37 0 18 2;
#X connect 38 0 16 1;
#X restore 848 169 pd osc_preset_6;
#N canvas 17 71 1390 750 osc_preset_7 0;
#X obj 40 19 inlet;
#X obj 698 583 outlet;
#X msg 40 307 1;
#X msg 305 206 2;
#N canvas 0 23 421 370 osc_env_pre 0;
#X obj 102 51 inlet;
#X obj 102 248 outlet;
#X obj 170 51 inlet;
#X msg 102 211 \$5 env \$1 \$2 \$3 \$4;
#X obj 170 97 unpack f f f f;
#X obj 102 176 pack f f f f f;
#X connect 0 0 5 4;
#X connect 2 0 4 0;
#X connect 3 0 1 0;
#X connect 4 0 5 0;
#X connect 4 1 5 1;
#X connect 4 2 5 2;
#X connect 4 3 5 3;
#X connect 5 0 3 0;
#X restore 166 360 pd osc_env_pre;
#N canvas 0 23 421 370 osc_env_pre 0;
#X obj 102 51 inlet;
#X obj 102 248 outlet;
#X obj 170 51 inlet;
#X msg 102 211 \$5 env \$1 \$2 \$3 \$4;
#X obj 170 97 unpack f f f f;
#X obj 102 176 pack f f f f f;
#X connect 0 0 5 4;
#X connect 2 0 4 0;
#X connect 3 0 1 0;
#X connect 4 0 5 0;
#X connect 4 1 5 1;
#X connect 4 2 5 2;
#X connect 4 3 5 3;
#X connect 5 0 3 0;
#X restore 431 255 pd osc_env_pre;
#N canvas 0 23 450 300 osc_ratio_lvl 0;
#X obj 56 34 inlet;
#X obj 126 34 inlet;
#X obj 62 252 outlet;
#X obj 198 34 inlet;
#X obj 62 113 pack f f;
#X obj 182 113 pack f f;
#X msg 62 159 \$2 ratio \$1;
#X msg 182 159 \$2 level \$1;
#X connect 0 0 4 1;
#X connect 0 0 5 1;
#X connect 1 0 4 0;
#X connect 3 0 5 0;
#X connect 4 0 6 0;
#X connect 5 0 7 0;
#X connect 6 0 2 0;
#X connect 7 0 2 0;
#X restore 40 360 pd osc_ratio_lvl;
#N canvas 0 23 450 300 osc_ratio_lvl 0;
#X obj 56 34 inlet;
#X obj 126 34 inlet;
#X obj 62 252 outlet;
#X obj 198 34 inlet;
#X obj 62 113 pack f f;
#X obj 182 113 pack f f;
#X msg 62 159 \$2 ratio \$1;
#X msg 182 159 \$2 level \$1;
#X connect 0 0 4 1;
#X connect 0 0 5 1;
#X connect 1 0 4 0;
#X connect 3 0 5 0;
#X connect 4 0 6 0;
#X connect 5 0 7 0;
#X connect 6 0 2 0;
#X connect 7 0 2 0;
#X restore 305 254 pd osc_ratio_lvl;
#X obj 40 42 t b b b b b b, f 190;
#N canvas 0 23 421 370 osc_env_pre 0;
#X obj 102 51 inlet;
#X obj 102 248 outlet;
#X obj 170 51 inlet;
#X msg 102 211 \$5 env \$1 \$2 \$3 \$4;
#X obj 170 97 unpack f f f f;
#X obj 102 176 pack f f f f f;
#X connect 0 0 5 4;
#X connect 2 0 4 0;
#X connect 3 0 1 0;
#X connect 4 0 5 0;
#X connect 4 1 5 1;
#X connect 4 2 5 2;
#X connect 4 3 5 3;
#X connect 5 0 3 0;
#X restore 696 360 pd osc_env_pre;
#N canvas 0 23 421 370 osc_env_pre 0;
#X obj 102 51 inlet;
#X obj 102 248 outlet;
#X obj 170 51 inlet;
#X msg 102 211 \$5 env \$1 \$2 \$3 \$4;
#X obj 170 97 unpack f f f f;
#X obj 102 176 pack f f f f f;
#X connect 0 0 5 4;
#X connect 2 0 4 0;
#X connect 3 0 1 0;
#X connect 4 0 5 0;
#X connect 4 1 5 1;
#X connect 4 2 5 2;
#X connect 4 3 5 3;
#X connect 5 0 3 0;
#X restore 962 255 pd osc_env_pre;
#N canvas 0 23 450 300 osc_ratio_lvl 0;
#X obj 56 34 inlet;
#X obj 126 34 inlet;
#X obj 62 252 outlet;
#X obj 198 34 inlet;
#X obj 62 113 pack f f;
#X obj 182 113 pack f f;
#X msg 62 159 \$2 ratio \$1;
#X msg 182 159 \$2 level \$1;
#X connect 0 0 4 1;
#X connect 0 0 5 1;
#X connect 1 0 4 0;
#X connect 3 0 5 0;
#X connect 4 0 6 0;
#X connect 5 0 7 0;
#X connect 6 0 2 0;
#X connect 7 0 2 0;
#X restore 570 360 pd osc_ratio_lvl;
#N canvas 0 23 450 300 osc_ratio_lvl 0;
#X obj 56 34 inlet;
#X obj 126 34 inlet;
#X obj 62 252 outlet;
#X obj 198 34 inlet;
#X obj 62 113 pack f f;
#X obj 182 113 pack f f;
#X msg 62 159 \$2 ratio \$1;
#X msg 182 159 \$2 level \$1;
#X connect 0 0 4 1;
#X connect 0 0 5 1;
#X connect 1 0 4 0;
#X connect 3 0 5 0;
#X connect 4 0 6 0;
#X connect 5 0 7 0;
#X connect 6 0 2 0;
#X connect 7 0 2 0;
#X restore 836 254 pd osc_ratio_lvl;
#X msg 570 307 3;
#X msg 836 206 4;
#N canvas 0 23 421 370 osc_env_pre 0;
#X obj 102 51 inlet;
#X obj 102 248 outlet;
#X obj 170 51 inlet;
#X msg 102 211 \$5 env \$1 \$2 \$3 \$4;
#X obj 170 97 unpack f f f f;
#X obj 102 176 pack f f f f f;
#X connect 0 0 5 4;
#X connect 2 0 4 0;
#X connect 3 0 1 0;
#X connect 4 0 5 0;
#X connect 4 1 5 1;
#X connect 4 2 5 2;
#X connect 4 3 5 3;
#X connect 5 0 3 0;
#X restore 1227 370 pd osc_env_pre;
#N canvas 0 23 421 370 osc_env_pre 0;
#X obj 102 51 inlet;
#X obj 102 248 outlet;
#X obj 170 51 inlet;
#X msg 102 211 \$5 env \$1 \$2 \$3 \$4;
#X obj 170 97 unpack f f f f;
#X obj 102 176 pack f f f f f;
#X connect 0 0 5 4;
#X connect 2 0 4 0;
#X connect 3 0 1 0;
#X connect 4 0 5 0;
#X connect 4 1 5 1;
#X connect 4 2 5 2;
#X connect 4 3 5 3;
#X connect 5 0 3 0;
#X restore 1264 265 pd osc_env_pre;
#N canvas 0 23 450 300 osc_ratio_lvl 0;
#X obj 56 34 inlet;
#X obj 126 34 inlet;
#X obj 62 252 outlet;
#X obj 198 34 inlet;
#X obj 62 113 pack f f;
#X obj 182 113 pack f f;
#X msg 62 159 \$2 ratio \$1;
#X msg 182 159 \$2 level \$1;
#X connect 0 0 4 1;
#X connect 0 0 5 1;
#X connect 1 0 4 0;
#X connect 3 0 5 0;
#X connect 4 0 6 0;
#X connect 5 0 7 0;
#X connect 6 0 2 0;
#X connect 7 0 2 0;
#X restore 1101 370 pd osc_ratio_lvl;
#N canvas 0 23 450 300 osc_ratio_lvl 0;
#X obj 56 34 inlet;
#X obj 126 34 inlet;
#X obj 62 252 outlet;
#X obj 198 34 inlet;
#X obj 62 113 pack f f;
#X obj 182 113 pack f f;
#X msg 62 159 \$2 ratio \$1;
#X msg 182 159 \$2 level \$1;
#X connect 0 0 4 1;
#X connect 0 0 5 1;
#X connect 1 0 4 0;
#X connect 3 0 5 0;
#X connect 4 0 6 0;
#X connect 5 0 7 0;
#X connect 6 0 2 0;
#X connect 7 0 2 0;
#X restore 1138 264 pd osc_ratio_lvl;
#X msg 1101 317 5;
#X msg 1138 216 6;
#X msg 414 228 1;
#X msg 679 333 1;
#X msg 1210 343 1;
#X msg 1192 238 1;
#X msg 1247 238 1;
#X msg 94 333 7;
#X msg 149 333 0.05;
#X msg 188 333 712 12 39 760;
#X msg 359 228 5;
#X msg 454 228 1115 22 11 1632;
#X msg 624 333 7;
#X msg 718 333 257 1246 61 144;
#X msg 890 228 0.5;
#X msg 945 228 1;
#X msg 985 228 459 803 16 105;
#X msg 1155 343 3;
#X msg 1249 343 156 69 47 55;
#X msg 1287 238 55 39 41 307;
#X connect 0 0 8 0;
#X connect 2 0 4 0;
#X connect 2 0 6 0;
#X connect 3 0 5 0;
#X connect 3 0 7 0;
#X connect 4 0 1 0;
#X connect 5 0 1 0;
#X connect 6 0 1 0;
#X connect 7 0 1 0;
#X connect 8 0 2 0;
#X connect 8 0 26 0;
#X connect 8 0 27 0;
#X connect 8 0 28 0;
#X connect 8 1 3 0;
#X connect 8 1 29 0;
#X connect 8 1 21 0;
#X connect 8 1 30 0;
#X connect 8 2 13 0;
#X connect 8 2 31 0;
#X connect 8 2 22 0;
#X connect 8 2 32 0;
#X connect 8 3 14 0;
#X connect 8 3 33 0;
#X connect 8 3 34 0;
#X connect 8 3 35 0;
#X connect 8 4 19 0;
#X connect 8 4 36 0;
#X connect 8 4 23 0;
#X connect 8 4 37 0;
#X connect 8 5 20 0;
#X connect 8 5 24 0;
#X connect 8 5 25 0;
#X connect 8 5 38 0;
#X connect 9 0 1 0;
#X connect 10 0 1 0;
#X connect 11 0 1 0;
#X connect 12 0 1 0;
#X connect 13 0 9 0;
#X connect 13 0 11 0;
#X connect 14 0 10 0;
#X connect 14 0 12 0;
#X connect 15 0 1 0;
#X connect 16 0 1 0;
#X connect 17 0 1 0;
#X connect 18 0 1 0;
#X connect 19 0 15 0;
#X connect 19 0 17 0;
#X connect 20 0 16 0;
#X connect 20 0 18 0;
#X connect 21 0 7 2;
#X connect 22 0 11 2;
#X connect 23 0 17 2;
#X connect 24 0 18 1;
#X connect 25 0 18 2;
#X connect 26 0 6 1;
#X connect 27 0 6 2;
#X connect 28 0 4 1;
#X connect 29 0 7 1;
#X connect 30 0 5 1;
#X connect 31 0 11 1;
#X connect 32 0 9 1;
#X connect 33 0 12 1;
#X connect 34 0 12 2;
#X connect 35 0 10 1;
#X connect 36 0 17 1;
#X connect 37 0 15 1;
#X connect 38 0 16 1;
#X restore 998 169 pd osc_preset_7;
#X msg 965 169 3;
#X connect 0 0 1 0;
#X connect 1 0 8 0;
#X connect 1 0 9 0;
#X connect 1 0 11 0;
#X connect 1 1 12 0;
#X connect 1 1 13 0;
#X connect 1 1 9 0;
#X connect 1 2 15 0;
#X connect 1 2 16 0;
#X connect 1 2 14 0;
#X connect 1 3 18 0;
#X connect 1 3 17 0;
#X connect 1 3 19 0;
#X connect 1 4 20 0;
#X connect 1 4 21 0;
#X connect 1 4 14 0;
#X connect 1 5 22 0;
#X connect 1 5 23 0;
#X connect 1 5 14 0;
#X connect 1 6 25 0;
#X connect 1 6 24 0;
#X connect 8 0 2 0;
#X connect 9 0 3 0;
#X connect 10 0 3 0;
#X connect 11 0 4 0;
#X connect 12 0 4 0;
#X connect 13 0 2 0;
#X connect 14 0 3 0;
#X connect 15 0 2 0;
#X connect 16 0 4 0;
#X connect 17 0 4 0;
#X connect 18 0 2 0;
#X connect 19 0 3 0;
#X connect 20 0 2 0;
#X connect 21 0 4 0;
#X connect 22 0 2 0;
#X connect 23 0 4 0;
#X connect 24 0 4 0;
#X connect 25 0 2 0;
#X restore 671 653 pd presets;
#X obj 738 680 s \$0-to_interface;
#X connect 0 0 3 0;
#X connect 1 0 0 0;
#X connect 2 0 1 0;
#X connect 2 0 7 0;
#X connect 3 0 21 0;
#X connect 4 0 5 0;
#X connect 5 0 21 0;
#X connect 6 0 4 0;
#X connect 7 0 6 0;
#X connect 8 0 21 0;
#X connect 10 0 9 0;
#X connect 11 0 9 0;
#X connect 12 0 13 0;
#X connect 13 0 0 0;
#X connect 13 1 6 0;
#X connect 13 2 14 0;
#X connect 15 0 20 0;
#X connect 17 0 18 0;
#X connect 17 0 22 0;
#X connect 17 1 52 1;
#X connect 18 0 52 0;
#X connect 19 0 18 1;
#X connect 21 0 27 0;
#X connect 22 0 23 0;
#X connect 22 0 24 0;
#X connect 24 0 25 0;
#X connect 27 0 32 0;
#X connect 28 0 29 0;
#X connect 29 0 31 0;
#X connect 31 0 27 1;
#X connect 35 0 36 0;
#X connect 37 0 35 0;
#X connect 38 0 37 0;
#X connect 39 0 37 1;
#X connect 40 0 37 0;
#X connect 41 0 21 0;
#X connect 42 0 43 0;
#X connect 42 0 44 0;
#X connect 42 0 45 0;
#X connect 42 0 46 0;
#X connect 42 0 47 0;
#X connect 42 0 48 0;
#X connect 43 0 49 0;
#X connect 44 0 49 0;
#X connect 45 0 49 0;
#X connect 46 0 49 0;
#X connect 47 0 49 0;
#X connect 48 0 49 0;
#X connect 51 0 27 1;
#X connect 51 0 50 0;
#X connect 53 0 55 0;
#X connect 53 0 56 0;
#X connect 55 0 54 0;
#X connect 56 0 0 0;
#X connect 56 1 6 0;
#X connect 56 2 57 0;
#X coords 0 -1 1 1 620 500 1 100 100;
