#N canvas 42 23 553 763 12;
#X obj 102 318 r \$0-oms;
#X obj 35 295 r~ \$0-oscIn1;
#X obj 35 363 s~ \$0-oscOut1;
#X obj 242 318 r \$0-oms;
#X obj 175 295 r~ \$0-oscIn2;
#X obj 175 363 s~ \$0-oscOut2;
#X obj 102 415 r \$0-oms;
#X obj 242 415 r \$0-oms;
#X obj 102 515 r \$0-oms;
#X obj 242 515 r \$0-oms;
#X obj 35 392 r~ \$0-oscIn3;
#X obj 35 460 s~ \$0-oscOut3;
#X obj 175 392 r~ \$0-oscIn4;
#X obj 175 460 s~ \$0-oscOut4;
#X obj 35 492 r~ \$0-oscIn5;
#X obj 35 560 s~ \$0-oscOut5;
#X obj 175 492 r~ \$0-oscIn6;
#X obj 175 560 s~ \$0-oscOut6;
#X obj 68 608 receive~ \$0-out;
#N canvas 203 23 1040 689 routing 0;
#X obj 78 28 r~ \$0-oscOut1;
#X obj 198 28 r~ \$0-oscOut2;
#X obj 318 28 r~ \$0-oscOut3;
#X obj 438 28 r~ \$0-oscOut4;
#X obj 558 28 r~ \$0-oscOut5;
#X obj 678 28 r~ \$0-oscOut6;
#X obj 82 297 s~ \$0-oscIn1;
#X obj 195 297 s~ \$0-oscIn2;
#X obj 308 297 s~ \$0-oscIn3;
#X obj 421 297 s~ \$0-oscIn4;
#X obj 535 297 s~ \$0-oscIn5;
#X obj 648 297 s~ \$0-oscIn6;
#X obj 783 297 s~ \$0-out;
#N canvas 4 23 767 560 routing1 0;
#X obj 37 37 inlet~;
#X obj 37 220 *~;
#X obj 55 184 r \$0-r11;
#X obj 37 343 outlet~;
#X obj 127 220 *~;
#X obj 127 343 outlet~;
#X obj 217 220 *~;
#X obj 217 343 outlet~;
#X obj 307 220 *~;
#X obj 307 343 outlet~;
#X obj 397 220 *~;
#X obj 397 343 outlet~;
#X obj 487 220 *~;
#X obj 487 343 outlet~;
#X obj 637 220 *~;
#X obj 637 343 outlet~;
#X obj 145 184 r \$0-r12;
#X obj 235 184 r \$0-r13;
#X obj 325 184 r \$0-r14;
#X obj 415 184 r \$0-r15;
#X obj 505 184 r \$0-r16;
#X obj 655 184 r \$0-r1out;
#X obj 37 293 *~;
#X obj 55 255 r \$0-feedback;
#X connect 0 0 1 0;
#X connect 0 0 4 0;
#X connect 0 0 6 0;
#X connect 0 0 8 0;
#X connect 0 0 10 0;
#X connect 0 0 12 0;
#X connect 0 0 14 0;
#X connect 1 0 22 0;
#X connect 2 0 1 1;
#X connect 4 0 5 0;
#X connect 6 0 7 0;
#X connect 8 0 9 0;
#X connect 10 0 11 0;
#X connect 12 0 13 0;
#X connect 14 0 15 0;
#X connect 16 0 4 1;
#X connect 17 0 6 1;
#X connect 18 0 8 1;
#X connect 19 0 10 1;
#X connect 20 0 12 1;
#X connect 21 0 14 1;
#X connect 22 0 3 0;
#X connect 23 0 22 1;
#X restore 78 51 pd routing1;
#N canvas 4 23 767 560 routing2 0;
#X obj 37 37 inlet~;
#X obj 37 220 *~;
#X obj 37 343 outlet~;
#X obj 127 220 *~;
#X obj 127 343 outlet~;
#X obj 217 220 *~;
#X obj 217 343 outlet~;
#X obj 307 220 *~;
#X obj 307 343 outlet~;
#X obj 397 220 *~;
#X obj 397 343 outlet~;
#X obj 487 220 *~;
#X obj 487 343 outlet~;
#X obj 637 220 *~;
#X obj 637 343 outlet~;
#X obj 55 184 r \$0-r21;
#X obj 145 184 r \$0-r22;
#X obj 235 184 r \$0-r23;
#X obj 325 184 r \$0-r24;
#X obj 415 184 r \$0-r25;
#X obj 505 184 r \$0-r26;
#X obj 655 184 r \$0-r2out;
#X obj 127 289 *~;
#X obj 145 251 r \$0-feedback;
#X connect 0 0 1 0;
#X connect 0 0 3 0;
#X connect 0 0 5 0;
#X connect 0 0 7 0;
#X connect 0 0 9 0;
#X connect 0 0 11 0;
#X connect 0 0 13 0;
#X connect 1 0 2 0;
#X connect 3 0 22 0;
#X connect 5 0 6 0;
#X connect 7 0 8 0;
#X connect 9 0 10 0;
#X connect 11 0 12 0;
#X connect 13 0 14 0;
#X connect 15 0 1 1;
#X connect 16 0 3 1;
#X connect 17 0 5 1;
#X connect 18 0 7 1;
#X connect 19 0 9 1;
#X connect 20 0 11 1;
#X connect 21 0 13 1;
#X connect 22 0 4 0;
#X connect 23 0 22 1;
#X restore 198 51 pd routing2;
#N canvas 4 23 767 560 routing3 0;
#X obj 37 37 inlet~;
#X obj 37 220 *~;
#X obj 37 353 outlet~;
#X obj 127 220 *~;
#X obj 127 353 outlet~;
#X obj 217 220 *~;
#X obj 217 353 outlet~;
#X obj 307 220 *~;
#X obj 307 353 outlet~;
#X obj 397 220 *~;
#X obj 397 353 outlet~;
#X obj 487 220 *~;
#X obj 487 353 outlet~;
#X obj 637 220 *~;
#X obj 637 353 outlet~;
#X obj 55 184 r \$0-r31;
#X obj 145 184 r \$0-r32;
#X obj 235 184 r \$0-r33;
#X obj 325 184 r \$0-r34;
#X obj 415 184 r \$0-r35;
#X obj 505 184 r \$0-r36;
#X obj 655 184 r \$0-r3out;
#X obj 217 293 *~;
#X obj 235 255 r \$0-feedback;
#X connect 0 0 1 0;
#X connect 0 0 3 0;
#X connect 0 0 5 0;
#X connect 0 0 7 0;
#X connect 0 0 9 0;
#X connect 0 0 11 0;
#X connect 0 0 13 0;
#X connect 1 0 2 0;
#X connect 3 0 4 0;
#X connect 5 0 22 0;
#X connect 7 0 8 0;
#X connect 9 0 10 0;
#X connect 11 0 12 0;
#X connect 13 0 14 0;
#X connect 15 0 1 1;
#X connect 16 0 3 1;
#X connect 17 0 5 1;
#X connect 18 0 7 1;
#X connect 19 0 9 1;
#X connect 20 0 11 1;
#X connect 21 0 13 1;
#X connect 22 0 6 0;
#X connect 23 0 22 1;
#X restore 318 51 pd routing3;
#N canvas 4 23 767 560 routing4 0;
#X obj 37 37 inlet~;
#X obj 37 220 *~;
#X obj 37 343 outlet~;
#X obj 127 220 *~;
#X obj 127 343 outlet~;
#X obj 217 220 *~;
#X obj 217 343 outlet~;
#X obj 307 220 *~;
#X obj 307 343 outlet~;
#X obj 397 220 *~;
#X obj 397 343 outlet~;
#X obj 487 220 *~;
#X obj 487 343 outlet~;
#X obj 637 220 *~;
#X obj 637 343 outlet~;
#X obj 55 184 r \$0-r41;
#X obj 145 184 r \$0-r42;
#X obj 235 184 r \$0-r43;
#X obj 325 184 r \$0-r44;
#X obj 415 184 r \$0-r45;
#X obj 505 184 r \$0-r46;
#X obj 655 184 r \$0-r4out;
#X obj 307 289 *~;
#X obj 325 251 r \$0-feedback;
#X connect 0 0 1 0;
#X connect 0 0 3 0;
#X connect 0 0 5 0;
#X connect 0 0 7 0;
#X connect 0 0 9 0;
#X connect 0 0 11 0;
#X connect 0 0 13 0;
#X connect 1 0 2 0;
#X connect 3 0 4 0;
#X connect 5 0 6 0;
#X connect 7 0 22 0;
#X connect 9 0 10 0;
#X connect 11 0 12 0;
#X connect 13 0 14 0;
#X connect 15 0 1 1;
#X connect 16 0 3 1;
#X connect 17 0 5 1;
#X connect 18 0 7 1;
#X connect 19 0 9 1;
#X connect 20 0 11 1;
#X connect 21 0 13 1;
#X connect 22 0 8 0;
#X connect 23 0 22 1;
#X restore 438 51 pd routing4;
#N canvas 4 23 767 560 routing5 0;
#X obj 37 37 inlet~;
#X obj 37 220 *~;
#X obj 37 353 outlet~;
#X obj 127 220 *~;
#X obj 127 353 outlet~;
#X obj 217 220 *~;
#X obj 217 353 outlet~;
#X obj 307 220 *~;
#X obj 307 353 outlet~;
#X obj 397 220 *~;
#X obj 397 353 outlet~;
#X obj 487 220 *~;
#X obj 487 353 outlet~;
#X obj 637 220 *~;
#X obj 637 353 outlet~;
#X obj 55 184 r \$0-r51;
#X obj 145 184 r \$0-r52;
#X obj 235 184 r \$0-r53;
#X obj 325 184 r \$0-r54;
#X obj 415 184 r \$0-r55;
#X obj 505 184 r \$0-r56;
#X obj 655 184 r \$0-r5out;
#X obj 397 300 *~;
#X obj 415 262 r \$0-feedback;
#X connect 0 0 1 0;
#X connect 0 0 3 0;
#X connect 0 0 5 0;
#X connect 0 0 7 0;
#X connect 0 0 9 0;
#X connect 0 0 11 0;
#X connect 0 0 13 0;
#X connect 1 0 2 0;
#X connect 3 0 4 0;
#X connect 5 0 6 0;
#X connect 7 0 8 0;
#X connect 9 0 22 0;
#X connect 11 0 12 0;
#X connect 13 0 14 0;
#X connect 15 0 1 1;
#X connect 16 0 3 1;
#X connect 17 0 5 1;
#X connect 18 0 7 1;
#X connect 19 0 9 1;
#X connect 20 0 11 1;
#X connect 21 0 13 1;
#X connect 22 0 10 0;
#X connect 23 0 22 1;
#X restore 558 51 pd routing5;
#N canvas 4 23 767 560 routing6 0;
#X obj 37 37 inlet~;
#X obj 37 220 *~;
#X obj 37 353 outlet~;
#X obj 127 220 *~;
#X obj 127 353 outlet~;
#X obj 217 220 *~;
#X obj 217 353 outlet~;
#X obj 307 220 *~;
#X obj 307 353 outlet~;
#X obj 397 220 *~;
#X obj 397 353 outlet~;
#X obj 487 220 *~;
#X obj 487 353 outlet~;
#X obj 637 220 *~;
#X obj 637 353 outlet~;
#X obj 55 184 r \$0-r61;
#X obj 145 184 r \$0-r62;
#X obj 235 184 r \$0-r63;
#X obj 325 184 r \$0-r64;
#X obj 415 184 r \$0-r65;
#X obj 505 184 r \$0-r66;
#X obj 655 184 r \$0-r6out;
#X obj 487 293 *~;
#X obj 505 255 r \$0-feedback;
#X connect 0 0 1 0;
#X connect 0 0 3 0;
#X connect 0 0 5 0;
#X connect 0 0 7 0;
#X connect 0 0 9 0;
#X connect 0 0 11 0;
#X connect 0 0 13 0;
#X connect 1 0 2 0;
#X connect 3 0 4 0;
#X connect 5 0 6 0;
#X connect 7 0 8 0;
#X connect 9 0 10 0;
#X connect 11 0 22 0;
#X connect 13 0 14 0;
#X connect 15 0 1 1;
#X connect 16 0 3 1;
#X connect 17 0 5 1;
#X connect 18 0 7 1;
#X connect 19 0 9 1;
#X connect 20 0 11 1;
#X connect 21 0 13 1;
#X connect 22 0 12 0;
#X connect 23 0 22 1;
#X restore 678 51 pd routing6;
#X connect 0 0 13 0;
#X connect 1 0 14 0;
#X connect 2 0 15 0;
#X connect 3 0 16 0;
#X connect 4 0 17 0;
#X connect 5 0 18 0;
#X connect 13 0 6 0;
#X connect 13 1 7 0;
#X connect 13 2 8 0;
#X connect 13 3 9 0;
#X connect 13 4 10 0;
#X connect 13 5 11 0;
#X connect 13 6 12 0;
#X connect 14 0 6 0;
#X connect 14 1 7 0;
#X connect 14 2 8 0;
#X connect 14 3 9 0;
#X connect 14 4 10 0;
#X connect 14 5 11 0;
#X connect 14 6 12 0;
#X connect 15 0 6 0;
#X connect 15 1 7 0;
#X connect 15 2 8 0;
#X connect 15 3 9 0;
#X connect 15 4 10 0;
#X connect 15 5 11 0;
#X connect 15 6 12 0;
#X connect 16 0 6 0;
#X connect 16 1 7 0;
#X connect 16 2 8 0;
#X connect 16 3 9 0;
#X connect 16 4 10 0;
#X connect 16 5 11 0;
#X connect 16 6 12 0;
#X connect 17 0 6 0;
#X connect 17 1 7 0;
#X connect 17 2 8 0;
#X connect 17 3 9 0;
#X connect 17 4 10 0;
#X connect 17 5 11 0;
#X connect 17 6 12 0;
#X connect 18 0 6 0;
#X connect 18 1 7 0;
#X connect 18 2 8 0;
#X connect 18 3 9 0;
#X connect 18 4 10 0;
#X connect 18 5 11 0;
#X connect 18 6 12 0;
#X restore 43 227 pd routing;
#X floatatom 168 158 5 0 1 0 - - -;
#X obj 168 180 s \$0-feedback;
#X floatatom 43 156 5 1 32 1 algorithm - -;
#N canvas 22 23 1412 813 algorithms 0;
#X obj 127 27 inlet;
#X floatatom 127 50 5 0 0 0 - - -;
#X obj 127 100 sel 1 2 3 4, f 89;
#N canvas 0 23 351 308 route_osc 0;
#X obj 45 40 t l l;
#X msg 45 103 \$3;
#X obj 45 189 s;
#X obj 77 71 unpack f f;
#X msg 144 125 set \$1;
#X obj 144 148 makefilename;
#X obj 144 102 makefilename \$0-r%%d%d;
#X obj 45 13 inlet;
#X connect 0 0 1 0;
#X connect 0 1 3 0;
#X connect 1 0 2 0;
#X connect 3 0 5 0;
#X connect 3 1 6 0;
#X connect 4 0 5 0;
#X connect 5 0 2 1;
#X connect 6 0 4 0;
#X connect 7 0 0 0;
#X restore 19 152 pd route_osc;
#X msg 19 176 1 1 \, 3 1;
#N canvas 0 23 536 444 route_out 0;
#X obj 37 37 inlet;
#X obj 37 81 t l l;
#X msg 69 124 \$1;
#X obj 69 157 makefilename \$0-r%dout;
#X obj 37 190 s;
#X msg 37 124 \$2;
#X connect 0 0 1 0;
#X connect 1 0 5 0;
#X connect 1 1 2 0;
#X connect 2 0 3 0;
#X connect 3 0 4 1;
#X connect 5 0 4 0;
#X restore 19 201 pd route_out;
#X msg 19 127 2 1 1 \, 6 5 1 \, 5 4 1 \, 4 3 1 \, 6 6 1;
#X text 275 4 DX7 routing algorithms;
#N canvas 0 23 557 417 clear_all 0;
#X msg 153 132 1 1 0 \, 1 2 0 \, 1 3 0 \, 1 4 0 \, 1 5 0 \, 1 6 0;
#X msg 153 162 2 1 0 \, 2 2 0 \, 2 3 0 \, 2 4 0 \, 2 5 0 \, 2 6 0;
#X msg 153 192 3 1 0 \, 3 2 0 \, 3 3 0 \, 3 4 0 \, 3 5 0 \, 3 6 0;
#X msg 153 222 4 1 0 \, 4 2 0 \, 4 3 0 \, 4 4 0 \, 4 5 0 \, 4 6 0;
#X msg 153 252 5 1 0 \, 5 2 0 \, 5 3 0 \, 5 4 0 \, 5 5 0 \, 5 6 0;
#X msg 153 282 6 1 0 \, 6 2 0 \, 6 3 0 \, 6 4 0 \, 6 5 0 \, 6 6 0;
#X msg 153 341 1 0 \, 2 0 \, 3 0 \, 4 0 \, 5 0 \, 6 0;
#N canvas 0 23 351 308 route_osc 0;
#X obj 45 40 t l l;
#X msg 45 103 \$3;
#X obj 45 189 s;
#X obj 77 71 unpack f f;
#X msg 144 125 set \$1;
#X obj 144 148 makefilename;
#X obj 144 102 makefilename \$0-r%%d%d;
#X obj 45 13 inlet;
#X connect 0 0 1 0;
#X connect 0 1 3 0;
#X connect 1 0 2 0;
#X connect 3 0 5 0;
#X connect 3 1 6 0;
#X connect 4 0 5 0;
#X connect 5 0 2 1;
#X connect 6 0 4 0;
#X connect 7 0 0 0;
#X restore 113 312 pd route_osc;
#N canvas 0 23 536 444 route_out 0;
#X obj 37 37 inlet;
#X obj 37 81 t l l;
#X msg 69 124 \$1;
#X obj 69 157 makefilename \$0-r%dout;
#X obj 37 190 s;
#X msg 37 124 \$2;
#X connect 0 0 1 0;
#X connect 1 0 5 0;
#X connect 1 1 2 0;
#X connect 2 0 3 0;
#X connect 3 0 4 1;
#X connect 5 0 4 0;
#X restore 153 368 pd route_out;
#X obj 112 84 t b;
#X obj 112 59 inlet;
#X connect 0 0 7 0;
#X connect 1 0 7 0;
#X connect 2 0 7 0;
#X connect 3 0 7 0;
#X connect 4 0 7 0;
#X connect 5 0 7 0;
#X connect 6 0 8 0;
#X connect 9 0 0 0;
#X connect 9 0 1 0;
#X connect 9 0 2 0;
#X connect 9 0 3 0;
#X connect 9 0 4 0;
#X connect 9 0 5 0;
#X connect 9 0 6 0;
#X connect 10 0 9 0;
#X restore 179 74 pd clear_all;
#X obj 127 72 t f b;
#N canvas 0 23 351 308 route_osc 0;
#X obj 45 40 t l l;
#X msg 45 103 \$3;
#X obj 45 189 s;
#X obj 77 71 unpack f f;
#X msg 144 125 set \$1;
#X obj 144 148 makefilename;
#X obj 144 102 makefilename \$0-r%%d%d;
#X obj 45 13 inlet;
#X connect 0 0 1 0;
#X connect 0 1 3 0;
#X connect 1 0 2 0;
#X connect 3 0 5 0;
#X connect 3 1 6 0;
#X connect 4 0 5 0;
#X connect 5 0 2 1;
#X connect 6 0 4 0;
#X connect 7 0 0 0;
#X restore 269 152 pd route_osc;
#X msg 269 176 1 1 \, 3 1;
#N canvas 0 23 536 444 route_out 0;
#X obj 37 37 inlet;
#X obj 37 81 t l l;
#X msg 69 124 \$1;
#X obj 69 157 makefilename \$0-r%dout;
#X obj 37 190 s;
#X msg 37 124 \$2;
#X connect 0 0 1 0;
#X connect 1 0 5 0;
#X connect 1 1 2 0;
#X connect 2 0 3 0;
#X connect 3 0 4 1;
#X connect 5 0 4 0;
#X restore 269 201 pd route_out;
#X msg 269 127 2 1 1 \, 6 5 1 \, 5 4 1 \, 4 3 1 \, 2 2 1;
#N canvas 0 23 351 308 route_osc 0;
#X obj 45 40 t l l;
#X msg 45 103 \$3;
#X obj 45 189 s;
#X obj 77 71 unpack f f;
#X msg 144 125 set \$1;
#X obj 144 148 makefilename;
#X obj 144 102 makefilename \$0-r%%d%d;
#X obj 45 13 inlet;
#X connect 0 0 1 0;
#X connect 0 1 3 0;
#X connect 1 0 2 0;
#X connect 3 0 5 0;
#X connect 3 1 6 0;
#X connect 4 0 5 0;
#X connect 5 0 2 1;
#X connect 6 0 4 0;
#X connect 7 0 0 0;
#X restore 519 152 pd route_osc;
#N canvas 0 23 536 444 route_out 0;
#X obj 37 37 inlet;
#X obj 37 81 t l l;
#X msg 69 124 \$1;
#X obj 69 157 makefilename \$0-r%dout;
#X obj 37 190 s;
#X msg 37 124 \$2;
#X connect 0 0 1 0;
#X connect 1 0 5 0;
#X connect 1 1 2 0;
#X connect 2 0 3 0;
#X connect 3 0 4 1;
#X connect 5 0 4 0;
#X restore 519 201 pd route_out;
#X msg 519 176 1 1 \, 4 1;
#X msg 519 127 3 2 1 \, 2 1 1 \, 6 5 1 \, 5 4 1 \, 6 6 1;
#N canvas 0 23 351 308 route_osc 0;
#X obj 45 40 t l l;
#X msg 45 103 \$3;
#X obj 45 189 s;
#X obj 77 71 unpack f f;
#X msg 144 125 set \$1;
#X obj 144 148 makefilename;
#X obj 144 102 makefilename \$0-r%%d%d;
#X obj 45 13 inlet;
#X connect 0 0 1 0;
#X connect 0 1 3 0;
#X connect 1 0 2 0;
#X connect 3 0 5 0;
#X connect 3 1 6 0;
#X connect 4 0 5 0;
#X connect 5 0 2 1;
#X connect 6 0 4 0;
#X connect 7 0 0 0;
#X restore 769 152 pd route_osc;
#N canvas 0 23 536 444 route_out 0;
#X obj 37 37 inlet;
#X obj 37 81 t l l;
#X msg 69 124 \$1;
#X obj 69 157 makefilename \$0-r%dout;
#X obj 37 190 s;
#X msg 37 124 \$2;
#X connect 0 0 1 0;
#X connect 1 0 5 0;
#X connect 1 1 2 0;
#X connect 2 0 3 0;
#X connect 3 0 4 1;
#X connect 5 0 4 0;
#X restore 769 201 pd route_out;
#X msg 769 176 1 1 \, 4 1;
#X msg 769 127 3 2 1 \, 2 1 1 \, 6 5 1 \, 5 4 1 \, 4 6 1;
#N canvas 0 23 351 308 route_osc 0;
#X obj 45 40 t l l;
#X msg 45 103 \$3;
#X obj 45 189 s;
#X obj 77 71 unpack f f;
#X msg 144 125 set \$1;
#X obj 144 148 makefilename;
#X obj 144 102 makefilename \$0-r%%d%d;
#X obj 45 13 inlet;
#X connect 0 0 1 0;
#X connect 0 1 3 0;
#X connect 1 0 2 0;
#X connect 3 0 5 0;
#X connect 3 1 6 0;
#X connect 4 0 5 0;
#X connect 5 0 2 1;
#X connect 6 0 4 0;
#X connect 7 0 0 0;
#X restore 19 283 pd route_osc;
#N canvas 0 23 536 444 route_out 0;
#X obj 37 37 inlet;
#X obj 37 81 t l l;
#X msg 69 124 \$1;
#X obj 69 157 makefilename \$0-r%dout;
#X obj 37 190 s;
#X msg 37 124 \$2;
#X connect 0 0 1 0;
#X connect 1 0 5 0;
#X connect 1 1 2 0;
#X connect 2 0 3 0;
#X connect 3 0 4 1;
#X connect 5 0 4 0;
#X restore 19 333 pd route_out;
#N canvas 0 23 351 308 route_osc 0;
#X obj 45 40 t l l;
#X msg 45 103 \$3;
#X obj 45 189 s;
#X obj 77 71 unpack f f;
#X msg 144 125 set \$1;
#X obj 144 148 makefilename;
#X obj 144 102 makefilename \$0-r%%d%d;
#X obj 45 13 inlet;
#X connect 0 0 1 0;
#X connect 0 1 3 0;
#X connect 1 0 2 0;
#X connect 3 0 5 0;
#X connect 3 1 6 0;
#X connect 4 0 5 0;
#X connect 5 0 2 1;
#X connect 6 0 4 0;
#X connect 7 0 0 0;
#X restore 269 283 pd route_osc;
#N canvas 0 23 536 444 route_out 0;
#X obj 37 37 inlet;
#X obj 37 81 t l l;
#X msg 69 124 \$1;
#X obj 69 157 makefilename \$0-r%dout;
#X obj 37 190 s;
#X msg 37 124 \$2;
#X connect 0 0 1 0;
#X connect 1 0 5 0;
#X connect 1 1 2 0;
#X connect 2 0 3 0;
#X connect 3 0 4 1;
#X connect 5 0 4 0;
#X restore 269 333 pd route_out;
#N canvas 0 23 351 308 route_osc 0;
#X obj 45 40 t l l;
#X msg 45 103 \$3;
#X obj 45 189 s;
#X obj 77 71 unpack f f;
#X msg 144 125 set \$1;
#X obj 144 148 makefilename;
#X obj 144 102 makefilename \$0-r%%d%d;
#X obj 45 13 inlet;
#X connect 0 0 1 0;
#X connect 0 1 3 0;
#X connect 1 0 2 0;
#X connect 3 0 5 0;
#X connect 3 1 6 0;
#X connect 4 0 5 0;
#X connect 5 0 2 1;
#X connect 6 0 4 0;
#X connect 7 0 0 0;
#X restore 519 283 pd route_osc;
#N canvas 0 23 536 444 route_out 0;
#X obj 37 37 inlet;
#X obj 37 81 t l l;
#X msg 69 124 \$1;
#X obj 69 157 makefilename \$0-r%dout;
#X obj 37 190 s;
#X msg 37 124 \$2;
#X connect 0 0 1 0;
#X connect 1 0 5 0;
#X connect 1 1 2 0;
#X connect 2 0 3 0;
#X connect 3 0 4 1;
#X connect 5 0 4 0;
#X restore 519 333 pd route_out;
#N canvas 0 23 351 308 route_osc 0;
#X obj 45 40 t l l;
#X msg 45 103 \$3;
#X obj 45 189 s;
#X obj 77 71 unpack f f;
#X msg 144 125 set \$1;
#X obj 144 148 makefilename;
#X obj 144 102 makefilename \$0-r%%d%d;
#X obj 45 13 inlet;
#X connect 0 0 1 0;
#X connect 0 1 3 0;
#X connect 1 0 2 0;
#X connect 3 0 5 0;
#X connect 3 1 6 0;
#X connect 4 0 5 0;
#X connect 5 0 2 1;
#X connect 6 0 4 0;
#X connect 7 0 0 0;
#X restore 769 283 pd route_osc;
#N canvas 0 23 536 444 route_out 0;
#X obj 37 37 inlet;
#X obj 37 81 t l l;
#X msg 69 124 \$1;
#X obj 69 157 makefilename \$0-r%dout;
#X obj 37 190 s;
#X msg 37 124 \$2;
#X connect 0 0 1 0;
#X connect 1 0 5 0;
#X connect 1 1 2 0;
#X connect 2 0 3 0;
#X connect 3 0 4 1;
#X connect 5 0 4 0;
#X restore 769 333 pd route_out;
#X obj 127 230 sel 5 6 7 8, f 89;
#X msg 19 308 1 1 \, 3 1 \, 5 1;
#X msg 269 257 2 1 1 \, 4 3 1 \, 6 5 1 \, 5 6 1;
#X msg 19 257 2 1 1 \, 4 3 1 \, 6 5 1 \, 6 6 1;
#X msg 269 308 1 1 \, 3 1 \, 5 1;
#X msg 519 257 2 1 1 \, 4 3 1 \, 6 5 1 \, 5 3 1 \, 6 6 1;
#X msg 519 308 1 1 \, 3 1;
#X msg 769 257 2 1 1 \, 4 3 1 \, 6 5 1 \, 5 3 1 \, 5 4 1;
#X msg 769 308 1 1 \, 3 1;
#N canvas 0 23 351 308 route_osc 0;
#X obj 45 40 t l l;
#X msg 45 103 \$3;
#X obj 45 189 s;
#X obj 77 71 unpack f f;
#X msg 144 125 set \$1;
#X obj 144 148 makefilename;
#X obj 144 102 makefilename \$0-r%%d%d;
#X obj 45 13 inlet;
#X connect 0 0 1 0;
#X connect 0 1 3 0;
#X connect 1 0 2 0;
#X connect 3 0 5 0;
#X connect 3 1 6 0;
#X connect 4 0 5 0;
#X connect 5 0 2 1;
#X connect 6 0 4 0;
#X connect 7 0 0 0;
#X restore 19 414 pd route_osc;
#N canvas 0 23 536 444 route_out 0;
#X obj 37 37 inlet;
#X obj 37 81 t l l;
#X msg 69 124 \$1;
#X obj 69 157 makefilename \$0-r%dout;
#X obj 37 190 s;
#X msg 37 124 \$2;
#X connect 0 0 1 0;
#X connect 1 0 5 0;
#X connect 1 1 2 0;
#X connect 2 0 3 0;
#X connect 3 0 4 1;
#X connect 5 0 4 0;
#X restore 19 464 pd route_out;
#N canvas 0 23 351 308 route_osc 0;
#X obj 45 40 t l l;
#X msg 45 103 \$3;
#X obj 45 189 s;
#X obj 77 71 unpack f f;
#X msg 144 125 set \$1;
#X obj 144 148 makefilename;
#X obj 144 102 makefilename \$0-r%%d%d;
#X obj 45 13 inlet;
#X connect 0 0 1 0;
#X connect 0 1 3 0;
#X connect 1 0 2 0;
#X connect 3 0 5 0;
#X connect 3 1 6 0;
#X connect 4 0 5 0;
#X connect 5 0 2 1;
#X connect 6 0 4 0;
#X connect 7 0 0 0;
#X restore 269 414 pd route_osc;
#N canvas 0 23 536 444 route_out 0;
#X obj 37 37 inlet;
#X obj 37 81 t l l;
#X msg 69 124 \$1;
#X obj 69 157 makefilename \$0-r%dout;
#X obj 37 190 s;
#X msg 37 124 \$2;
#X connect 0 0 1 0;
#X connect 1 0 5 0;
#X connect 1 1 2 0;
#X connect 2 0 3 0;
#X connect 3 0 4 1;
#X connect 5 0 4 0;
#X restore 269 464 pd route_out;
#N canvas 0 23 351 308 route_osc 0;
#X obj 45 40 t l l;
#X msg 45 103 \$3;
#X obj 45 189 s;
#X obj 77 71 unpack f f;
#X msg 144 125 set \$1;
#X obj 144 148 makefilename;
#X obj 144 102 makefilename \$0-r%%d%d;
#X obj 45 13 inlet;
#X connect 0 0 1 0;
#X connect 0 1 3 0;
#X connect 1 0 2 0;
#X connect 3 0 5 0;
#X connect 3 1 6 0;
#X connect 4 0 5 0;
#X connect 5 0 2 1;
#X connect 6 0 4 0;
#X connect 7 0 0 0;
#X restore 519 414 pd route_osc;
#N canvas 0 23 536 444 route_out 0;
#X obj 37 37 inlet;
#X obj 37 81 t l l;
#X msg 69 124 \$1;
#X obj 69 157 makefilename \$0-r%dout;
#X obj 37 190 s;
#X msg 37 124 \$2;
#X connect 0 0 1 0;
#X connect 1 0 5 0;
#X connect 1 1 2 0;
#X connect 2 0 3 0;
#X connect 3 0 4 1;
#X connect 5 0 4 0;
#X restore 519 464 pd route_out;
#N canvas 0 23 351 308 route_osc 0;
#X obj 45 40 t l l;
#X msg 45 103 \$3;
#X obj 45 189 s;
#X obj 77 71 unpack f f;
#X msg 144 125 set \$1;
#X obj 144 148 makefilename;
#X obj 144 102 makefilename \$0-r%%d%d;
#X obj 45 13 inlet;
#X connect 0 0 1 0;
#X connect 0 1 3 0;
#X connect 1 0 2 0;
#X connect 3 0 5 0;
#X connect 3 1 6 0;
#X connect 4 0 5 0;
#X connect 5 0 2 1;
#X connect 6 0 4 0;
#X connect 7 0 0 0;
#X restore 769 414 pd route_osc;
#N canvas 0 23 536 444 route_out 0;
#X obj 37 37 inlet;
#X obj 37 81 t l l;
#X msg 69 124 \$1;
#X obj 69 157 makefilename \$0-r%dout;
#X obj 37 190 s;
#X msg 37 124 \$2;
#X connect 0 0 1 0;
#X connect 1 0 5 0;
#X connect 1 1 2 0;
#X connect 2 0 3 0;
#X connect 3 0 4 1;
#X connect 5 0 4 0;
#X restore 769 464 pd route_out;
#X msg 769 439 1 1 \, 3 1;
#X obj 127 361 sel 9 10 11 12, f 89;
#X msg 19 388 2 1 1 \, 4 3 1 \, 6 5 1 \, 5 3 1 \, 2 2 1;
#X msg 19 439 1 1 \, 3 1;
#X msg 269 388 3 2 1 \, 2 1 1 \, 5 4 1 \, 6 4 1 \, 3 3 1;
#X msg 269 439 1 1 \, 4 1;
#X msg 519 388 3 2 1 \, 2 1 1 \, 5 4 1 \, 6 4 1 \, 5 6 1;
#X msg 519 439 1 1 \, 4 1;
#X msg 769 388 2 1 1 \, 4 3 1 \, 5 3 1 \, 6 3 1 \, 2 2 1;
#N canvas 0 23 351 308 route_osc 0;
#X obj 45 40 t l l;
#X msg 45 103 \$3;
#X obj 45 189 s;
#X obj 77 71 unpack f f;
#X msg 144 125 set \$1;
#X obj 144 148 makefilename;
#X obj 144 102 makefilename \$0-r%%d%d;
#X obj 45 13 inlet;
#X connect 0 0 1 0;
#X connect 0 1 3 0;
#X connect 1 0 2 0;
#X connect 3 0 5 0;
#X connect 3 1 6 0;
#X connect 4 0 5 0;
#X connect 5 0 2 1;
#X connect 6 0 4 0;
#X connect 7 0 0 0;
#X restore 19 545 pd route_osc;
#N canvas 0 23 536 444 route_out 0;
#X obj 37 37 inlet;
#X obj 37 81 t l l;
#X msg 69 124 \$1;
#X obj 69 157 makefilename \$0-r%dout;
#X obj 37 190 s;
#X msg 37 124 \$2;
#X connect 0 0 1 0;
#X connect 1 0 5 0;
#X connect 1 1 2 0;
#X connect 2 0 3 0;
#X connect 3 0 4 1;
#X connect 5 0 4 0;
#X restore 19 595 pd route_out;
#N canvas 0 23 351 308 route_osc 0;
#X obj 45 40 t l l;
#X msg 45 103 \$3;
#X obj 45 189 s;
#X obj 77 71 unpack f f;
#X msg 144 125 set \$1;
#X obj 144 148 makefilename;
#X obj 144 102 makefilename \$0-r%%d%d;
#X obj 45 13 inlet;
#X connect 0 0 1 0;
#X connect 0 1 3 0;
#X connect 1 0 2 0;
#X connect 3 0 5 0;
#X connect 3 1 6 0;
#X connect 4 0 5 0;
#X connect 5 0 2 1;
#X connect 6 0 4 0;
#X connect 7 0 0 0;
#X restore 269 545 pd route_osc;
#N canvas 0 23 536 444 route_out 0;
#X obj 37 37 inlet;
#X obj 37 81 t l l;
#X msg 69 124 \$1;
#X obj 69 157 makefilename \$0-r%dout;
#X obj 37 190 s;
#X msg 37 124 \$2;
#X connect 0 0 1 0;
#X connect 1 0 5 0;
#X connect 1 1 2 0;
#X connect 2 0 3 0;
#X connect 3 0 4 1;
#X connect 5 0 4 0;
#X restore 269 595 pd route_out;
#N canvas 0 23 351 308 route_osc 0;
#X obj 45 40 t l l;
#X msg 45 103 \$3;
#X obj 45 189 s;
#X obj 77 71 unpack f f;
#X msg 144 125 set \$1;
#X obj 144 148 makefilename;
#X obj 144 102 makefilename \$0-r%%d%d;
#X obj 45 13 inlet;
#X connect 0 0 1 0;
#X connect 0 1 3 0;
#X connect 1 0 2 0;
#X connect 3 0 5 0;
#X connect 3 1 6 0;
#X connect 4 0 5 0;
#X connect 5 0 2 1;
#X connect 6 0 4 0;
#X connect 7 0 0 0;
#X restore 519 545 pd route_osc;
#N canvas 0 23 536 444 route_out 0;
#X obj 37 37 inlet;
#X obj 37 81 t l l;
#X msg 69 124 \$1;
#X obj 69 157 makefilename \$0-r%dout;
#X obj 37 190 s;
#X msg 37 124 \$2;
#X connect 0 0 1 0;
#X connect 1 0 5 0;
#X connect 1 1 2 0;
#X connect 2 0 3 0;
#X connect 3 0 4 1;
#X connect 5 0 4 0;
#X restore 519 595 pd route_out;
#N canvas 0 23 351 308 route_osc 0;
#X obj 45 40 t l l;
#X msg 45 103 \$3;
#X obj 45 189 s;
#X obj 77 71 unpack f f;
#X msg 144 125 set \$1;
#X obj 144 148 makefilename;
#X obj 144 102 makefilename \$0-r%%d%d;
#X obj 45 13 inlet;
#X connect 0 0 1 0;
#X connect 0 1 3 0;
#X connect 1 0 2 0;
#X connect 3 0 5 0;
#X connect 3 1 6 0;
#X connect 4 0 5 0;
#X connect 5 0 2 1;
#X connect 6 0 4 0;
#X connect 7 0 0 0;
#X restore 769 545 pd route_osc;
#N canvas 0 23 536 444 route_out 0;
#X obj 37 37 inlet;
#X obj 37 81 t l l;
#X msg 69 124 \$1;
#X obj 69 157 makefilename \$0-r%dout;
#X obj 37 190 s;
#X msg 37 124 \$2;
#X connect 0 0 1 0;
#X connect 1 0 5 0;
#X connect 1 1 2 0;
#X connect 2 0 3 0;
#X connect 3 0 4 1;
#X connect 5 0 4 0;
#X restore 769 595 pd route_out;
#X msg 19 570 1 1 \, 3 1;
#X obj 127 492 sel 13 14 15 16, f 89;
#X msg 19 519 2 1 1 \, 4 3 1 \, 5 3 1 \, 6 3 1 \, 6 6 1;
#X msg 269 519 2 1 1 \, 4 3 1 \, 5 4 1 \, 6 4 1 \, 5 6 1;
#X msg 269 570 1 1 \, 3 1;
#X msg 519 519 2 1 1 \, 4 3 1 \, 5 4 1 \, 6 4 1 \, 2 2 1;
#X msg 519 570 1 1 \, 3 1;
#X msg 769 519 2 1 1 \, 3 1 1 \, 4 3 1 \, 5 1 1 \, 6 5 1 \, 6 6 1;
#X msg 769 570 1 1;
#N canvas 0 23 351 308 route_osc 0;
#X obj 45 40 t l l;
#X msg 45 103 \$3;
#X obj 45 189 s;
#X obj 77 71 unpack f f;
#X msg 144 125 set \$1;
#X obj 144 148 makefilename;
#X obj 144 102 makefilename \$0-r%%d%d;
#X obj 45 13 inlet;
#X connect 0 0 1 0;
#X connect 0 1 3 0;
#X connect 1 0 2 0;
#X connect 3 0 5 0;
#X connect 3 1 6 0;
#X connect 4 0 5 0;
#X connect 5 0 2 1;
#X connect 6 0 4 0;
#X connect 7 0 0 0;
#X restore 19 676 pd route_osc;
#N canvas 0 23 536 444 route_out 0;
#X obj 37 37 inlet;
#X obj 37 81 t l l;
#X msg 69 124 \$1;
#X obj 69 157 makefilename \$0-r%dout;
#X obj 37 190 s;
#X msg 37 124 \$2;
#X connect 0 0 1 0;
#X connect 1 0 5 0;
#X connect 1 1 2 0;
#X connect 2 0 3 0;
#X connect 3 0 4 1;
#X connect 5 0 4 0;
#X restore 19 726 pd route_out;
#N canvas 0 23 351 308 route_osc 0;
#X obj 45 40 t l l;
#X msg 45 103 \$3;
#X obj 45 189 s;
#X obj 77 71 unpack f f;
#X msg 144 125 set \$1;
#X obj 144 148 makefilename;
#X obj 144 102 makefilename \$0-r%%d%d;
#X obj 45 13 inlet;
#X connect 0 0 1 0;
#X connect 0 1 3 0;
#X connect 1 0 2 0;
#X connect 3 0 5 0;
#X connect 3 1 6 0;
#X connect 4 0 5 0;
#X connect 5 0 2 1;
#X connect 6 0 4 0;
#X connect 7 0 0 0;
#X restore 313 676 pd route_osc;
#N canvas 0 23 536 444 route_out 0;
#X obj 37 37 inlet;
#X obj 37 81 t l l;
#X msg 69 124 \$1;
#X obj 69 157 makefilename \$0-r%dout;
#X obj 37 190 s;
#X msg 37 124 \$2;
#X connect 0 0 1 0;
#X connect 1 0 5 0;
#X connect 1 1 2 0;
#X connect 2 0 3 0;
#X connect 3 0 4 1;
#X connect 5 0 4 0;
#X restore 313 726 pd route_out;
#N canvas 0 23 351 308 route_osc 0;
#X obj 45 40 t l l;
#X msg 45 103 \$3;
#X obj 45 189 s;
#X obj 77 71 unpack f f;
#X msg 144 125 set \$1;
#X obj 144 148 makefilename;
#X obj 144 102 makefilename \$0-r%%d%d;
#X obj 45 13 inlet;
#X connect 0 0 1 0;
#X connect 0 1 3 0;
#X connect 1 0 2 0;
#X connect 3 0 5 0;
#X connect 3 1 6 0;
#X connect 4 0 5 0;
#X connect 5 0 2 1;
#X connect 6 0 4 0;
#X connect 7 0 0 0;
#X restore 607 676 pd route_osc;
#N canvas 0 23 536 444 route_out 0;
#X obj 37 37 inlet;
#X obj 37 81 t l l;
#X msg 69 124 \$1;
#X obj 69 157 makefilename \$0-r%dout;
#X obj 37 190 s;
#X msg 37 124 \$2;
#X connect 0 0 1 0;
#X connect 1 0 5 0;
#X connect 1 1 2 0;
#X connect 2 0 3 0;
#X connect 3 0 4 1;
#X connect 5 0 4 0;
#X restore 607 726 pd route_out;
#N canvas 0 23 351 308 route_osc 0;
#X obj 45 40 t l l;
#X msg 45 103 \$3;
#X obj 45 189 s;
#X obj 77 71 unpack f f;
#X msg 144 125 set \$1;
#X obj 144 148 makefilename;
#X obj 144 102 makefilename \$0-r%%d%d;
#X obj 45 13 inlet;
#X connect 0 0 1 0;
#X connect 0 1 3 0;
#X connect 1 0 2 0;
#X connect 3 0 5 0;
#X connect 3 1 6 0;
#X connect 4 0 5 0;
#X connect 5 0 2 1;
#X connect 6 0 4 0;
#X connect 7 0 0 0;
#X restore 857 676 pd route_osc;
#N canvas 0 23 536 444 route_out 0;
#X obj 37 37 inlet;
#X obj 37 81 t l l;
#X msg 69 124 \$1;
#X obj 69 157 makefilename \$0-r%dout;
#X obj 37 190 s;
#X msg 37 124 \$2;
#X connect 0 0 1 0;
#X connect 1 0 5 0;
#X connect 1 1 2 0;
#X connect 2 0 3 0;
#X connect 3 0 4 1;
#X connect 5 0 4 0;
#X restore 857 726 pd route_out;
#X obj 127 623 sel 17 18 19 20, f 89;
#X msg 19 650 2 1 1 \, 3 1 1 \, 4 3 1 \, 5 1 1 \, 6 5 1 \, 2 2 1;
#X msg 19 701 1 1;
#X msg 313 650 2 1 1 \, 3 1 1 \, 4 1 1 \, 5 4 1 \, 6 5 1 \, 3 3 1;
#X msg 313 701 1 1;
#X msg 607 650 2 1 1 \, 3 2 1 \, 6 4 1 \, 6 5 1 \, 6 6 1;
#X msg 607 701 1 1 \, 4 1 \, 5 1;
#X msg 857 650 3 1 1 \, 3 2 1 \, 5 4 1 \, 6 4 1 \, 3 3 1;
#X msg 857 701 1 1 \, 2 1 \, 4 1;
#N canvas 0 23 351 308 route_osc 0;
#X obj 45 40 t l l;
#X msg 45 103 \$3;
#X obj 45 189 s;
#X obj 77 71 unpack f f;
#X msg 144 125 set \$1;
#X obj 144 148 makefilename;
#X obj 144 102 makefilename \$0-r%%d%d;
#X obj 45 13 inlet;
#X connect 0 0 1 0;
#X connect 0 1 3 0;
#X connect 1 0 2 0;
#X connect 3 0 5 0;
#X connect 3 1 6 0;
#X connect 4 0 5 0;
#X connect 5 0 2 1;
#X connect 6 0 4 0;
#X connect 7 0 0 0;
#X restore 19 807 pd route_osc;
#N canvas 0 23 536 444 route_out 0;
#X obj 37 37 inlet;
#X obj 37 81 t l l;
#X msg 69 124 \$1;
#X obj 69 157 makefilename \$0-r%dout;
#X obj 37 190 s;
#X msg 37 124 \$2;
#X connect 0 0 1 0;
#X connect 1 0 5 0;
#X connect 1 1 2 0;
#X connect 2 0 3 0;
#X connect 3 0 4 1;
#X connect 5 0 4 0;
#X restore 19 857 pd route_out;
#N canvas 0 23 351 308 route_osc 0;
#X obj 45 40 t l l;
#X msg 45 103 \$3;
#X obj 45 189 s;
#X obj 77 71 unpack f f;
#X msg 144 125 set \$1;
#X obj 144 148 makefilename;
#X obj 144 102 makefilename \$0-r%%d%d;
#X obj 45 13 inlet;
#X connect 0 0 1 0;
#X connect 0 1 3 0;
#X connect 1 0 2 0;
#X connect 3 0 5 0;
#X connect 3 1 6 0;
#X connect 4 0 5 0;
#X connect 5 0 2 1;
#X connect 6 0 4 0;
#X connect 7 0 0 0;
#X restore 313 807 pd route_osc;
#N canvas 0 23 536 444 route_out 0;
#X obj 37 37 inlet;
#X obj 37 81 t l l;
#X msg 69 124 \$1;
#X obj 69 157 makefilename \$0-r%dout;
#X obj 37 190 s;
#X msg 37 124 \$2;
#X connect 0 0 1 0;
#X connect 1 0 5 0;
#X connect 1 1 2 0;
#X connect 2 0 3 0;
#X connect 3 0 4 1;
#X connect 5 0 4 0;
#X restore 313 857 pd route_out;
#N canvas 0 23 351 308 route_osc 0;
#X obj 45 40 t l l;
#X msg 45 103 \$3;
#X obj 45 189 s;
#X obj 77 71 unpack f f;
#X msg 144 125 set \$1;
#X obj 144 148 makefilename;
#X obj 144 102 makefilename \$0-r%%d%d;
#X obj 45 13 inlet;
#X connect 0 0 1 0;
#X connect 0 1 3 0;
#X connect 1 0 2 0;
#X connect 3 0 5 0;
#X connect 3 1 6 0;
#X connect 4 0 5 0;
#X connect 5 0 2 1;
#X connect 6 0 4 0;
#X connect 7 0 0 0;
#X restore 607 807 pd route_osc;
#N canvas 0 23 536 444 route_out 0;
#X obj 37 37 inlet;
#X obj 37 81 t l l;
#X msg 69 124 \$1;
#X obj 69 157 makefilename \$0-r%dout;
#X obj 37 190 s;
#X msg 37 124 \$2;
#X connect 0 0 1 0;
#X connect 1 0 5 0;
#X connect 1 1 2 0;
#X connect 2 0 3 0;
#X connect 3 0 4 1;
#X connect 5 0 4 0;
#X restore 607 857 pd route_out;
#N canvas 0 23 351 308 route_osc 0;
#X obj 45 40 t l l;
#X msg 45 103 \$3;
#X obj 45 189 s;
#X obj 77 71 unpack f f;
#X msg 144 125 set \$1;
#X obj 144 148 makefilename;
#X obj 144 102 makefilename \$0-r%%d%d;
#X obj 45 13 inlet;
#X connect 0 0 1 0;
#X connect 0 1 3 0;
#X connect 1 0 2 0;
#X connect 3 0 5 0;
#X connect 3 1 6 0;
#X connect 4 0 5 0;
#X connect 5 0 2 1;
#X connect 6 0 4 0;
#X connect 7 0 0 0;
#X restore 857 807 pd route_osc;
#N canvas 0 23 536 444 route_out 0;
#X obj 37 37 inlet;
#X obj 37 81 t l l;
#X msg 69 124 \$1;
#X obj 69 157 makefilename \$0-r%dout;
#X obj 37 190 s;
#X msg 37 124 \$2;
#X connect 0 0 1 0;
#X connect 1 0 5 0;
#X connect 1 1 2 0;
#X connect 2 0 3 0;
#X connect 3 0 4 1;
#X connect 5 0 4 0;
#X restore 857 857 pd route_out;
#X obj 127 754 sel 21 22 23 24, f 89;
#X msg 19 781 3 1 1 \, 3 2 1 \, 6 4 1 \, 6 5 1 \, 3 3 1;
#X msg 19 832 1 1 \, 2 1 \, 4 1 \, 5 1;
#X msg 313 781 2 1 1 \, 6 3 1 \, 6 4 1 \, 6 5 1 \, 6 6 1;
#X msg 313 832 1 1 \, 3 1 \, 4 1 \, 5 1;
#X msg 607 781 3 2 1 \, 6 4 1 \, 6 5 1 \, 6 6 1;
#X msg 607 832 1 1 \, 2 1 \, 4 1 \, 5 1;
#X msg 857 781 6 3 1 \, 6 4 1 \, 6 5 1 \, 6 6 1;
#X msg 857 832 1 1 \, 2 1 \, 3 1 \, 4 1 \, 5 1;
#N canvas 0 23 351 308 route_osc 0;
#X obj 45 40 t l l;
#X msg 45 103 \$3;
#X obj 45 189 s;
#X obj 77 71 unpack f f;
#X msg 144 125 set \$1;
#X obj 144 148 makefilename;
#X obj 144 102 makefilename \$0-r%%d%d;
#X obj 45 13 inlet;
#X connect 0 0 1 0;
#X connect 0 1 3 0;
#X connect 1 0 2 0;
#X connect 3 0 5 0;
#X connect 3 1 6 0;
#X connect 4 0 5 0;
#X connect 5 0 2 1;
#X connect 6 0 4 0;
#X connect 7 0 0 0;
#X restore 19 938 pd route_osc;
#N canvas 0 23 536 444 route_out 0;
#X obj 37 37 inlet;
#X obj 37 81 t l l;
#X msg 69 124 \$1;
#X obj 69 157 makefilename \$0-r%dout;
#X obj 37 190 s;
#X msg 37 124 \$2;
#X connect 0 0 1 0;
#X connect 1 0 5 0;
#X connect 1 1 2 0;
#X connect 2 0 3 0;
#X connect 3 0 4 1;
#X connect 5 0 4 0;
#X restore 19 988 pd route_out;
#N canvas 0 23 351 308 route_osc 0;
#X obj 45 40 t l l;
#X msg 45 103 \$3;
#X obj 45 189 s;
#X obj 77 71 unpack f f;
#X msg 144 125 set \$1;
#X obj 144 148 makefilename;
#X obj 144 102 makefilename \$0-r%%d%d;
#X obj 45 13 inlet;
#X connect 0 0 1 0;
#X connect 0 1 3 0;
#X connect 1 0 2 0;
#X connect 3 0 5 0;
#X connect 3 1 6 0;
#X connect 4 0 5 0;
#X connect 5 0 2 1;
#X connect 6 0 4 0;
#X connect 7 0 0 0;
#X restore 313 938 pd route_osc;
#N canvas 0 23 536 444 route_out 0;
#X obj 37 37 inlet;
#X obj 37 81 t l l;
#X msg 69 124 \$1;
#X obj 69 157 makefilename \$0-r%dout;
#X obj 37 190 s;
#X msg 37 124 \$2;
#X connect 0 0 1 0;
#X connect 1 0 5 0;
#X connect 1 1 2 0;
#X connect 2 0 3 0;
#X connect 3 0 4 1;
#X connect 5 0 4 0;
#X restore 313 988 pd route_out;
#N canvas 0 23 351 308 route_osc 0;
#X obj 45 40 t l l;
#X msg 45 103 \$3;
#X obj 45 189 s;
#X obj 77 71 unpack f f;
#X msg 144 125 set \$1;
#X obj 144 148 makefilename;
#X obj 144 102 makefilename \$0-r%%d%d;
#X obj 45 13 inlet;
#X connect 0 0 1 0;
#X connect 0 1 3 0;
#X connect 1 0 2 0;
#X connect 3 0 5 0;
#X connect 3 1 6 0;
#X connect 4 0 5 0;
#X connect 5 0 2 1;
#X connect 6 0 4 0;
#X connect 7 0 0 0;
#X restore 607 938 pd route_osc;
#N canvas 0 23 536 444 route_out 0;
#X obj 37 37 inlet;
#X obj 37 81 t l l;
#X msg 69 124 \$1;
#X obj 69 157 makefilename \$0-r%dout;
#X obj 37 190 s;
#X msg 37 124 \$2;
#X connect 0 0 1 0;
#X connect 1 0 5 0;
#X connect 1 1 2 0;
#X connect 2 0 3 0;
#X connect 3 0 4 1;
#X connect 5 0 4 0;
#X restore 607 988 pd route_out;
#N canvas 0 23 351 308 route_osc 0;
#X obj 45 40 t l l;
#X msg 45 103 \$3;
#X obj 45 189 s;
#X obj 77 71 unpack f f;
#X msg 144 125 set \$1;
#X obj 144 148 makefilename;
#X obj 144 102 makefilename \$0-r%%d%d;
#X obj 45 13 inlet;
#X connect 0 0 1 0;
#X connect 0 1 3 0;
#X connect 1 0 2 0;
#X connect 3 0 5 0;
#X connect 3 1 6 0;
#X connect 4 0 5 0;
#X connect 5 0 2 1;
#X connect 6 0 4 0;
#X connect 7 0 0 0;
#X restore 857 938 pd route_osc;
#N canvas 0 23 536 444 route_out 0;
#X obj 37 37 inlet;
#X obj 37 81 t l l;
#X msg 69 124 \$1;
#X obj 69 157 makefilename \$0-r%dout;
#X obj 37 190 s;
#X msg 37 124 \$2;
#X connect 0 0 1 0;
#X connect 1 0 5 0;
#X connect 1 1 2 0;
#X connect 2 0 3 0;
#X connect 3 0 4 1;
#X connect 5 0 4 0;
#X restore 857 988 pd route_out;
#X obj 127 885 sel 25 26 27 28, f 89;
#X msg 19 963 1 1 \, 2 1 \, 3 1 \, 4 1 \, 5 1;
#X msg 19 912 6 4 1 \, 6 5 1 \, 6 6 1;
#X msg 313 912 3 2 1 \, 5 4 1 \, 6 4 1 \, 6 6 1;
#X msg 313 963 1 1 \, 2 1 \, 4 1;
#X msg 607 912 3 2 1 \, 5 4 1 \, 6 4 1 \, 3 3 1;
#X msg 607 963 1 1 \, 2 1 \, 4 1;
#X msg 857 912 2 1 1 \, 4 3 1 \, 5 4 1 \, 5 5 1;
#X msg 857 963 1 1 \, 3 1 \, 6 1;
#N canvas 0 23 351 308 route_osc 0;
#X obj 45 40 t l l;
#X msg 45 103 \$3;
#X obj 45 189 s;
#X obj 77 71 unpack f f;
#X msg 144 125 set \$1;
#X obj 144 148 makefilename;
#X obj 144 102 makefilename \$0-r%%d%d;
#X obj 45 13 inlet;
#X connect 0 0 1 0;
#X connect 0 1 3 0;
#X connect 1 0 2 0;
#X connect 3 0 5 0;
#X connect 3 1 6 0;
#X connect 4 0 5 0;
#X connect 5 0 2 1;
#X connect 6 0 4 0;
#X connect 7 0 0 0;
#X restore 19 1068 pd route_osc;
#N canvas 0 23 536 444 route_out 0;
#X obj 37 37 inlet;
#X obj 37 81 t l l;
#X msg 69 124 \$1;
#X obj 69 157 makefilename \$0-r%dout;
#X obj 37 190 s;
#X msg 37 124 \$2;
#X connect 0 0 1 0;
#X connect 1 0 5 0;
#X connect 1 1 2 0;
#X connect 2 0 3 0;
#X connect 3 0 4 1;
#X connect 5 0 4 0;
#X restore 19 1118 pd route_out;
#N canvas 0 23 351 308 route_osc 0;
#X obj 45 40 t l l;
#X msg 45 103 \$3;
#X obj 45 189 s;
#X obj 77 71 unpack f f;
#X msg 144 125 set \$1;
#X obj 144 148 makefilename;
#X obj 144 102 makefilename \$0-r%%d%d;
#X obj 45 13 inlet;
#X connect 0 0 1 0;
#X connect 0 1 3 0;
#X connect 1 0 2 0;
#X connect 3 0 5 0;
#X connect 3 1 6 0;
#X connect 4 0 5 0;
#X connect 5 0 2 1;
#X connect 6 0 4 0;
#X connect 7 0 0 0;
#X restore 313 1068 pd route_osc;
#N canvas 0 23 536 444 route_out 0;
#X obj 37 37 inlet;
#X obj 37 81 t l l;
#X msg 69 124 \$1;
#X obj 69 157 makefilename \$0-r%dout;
#X obj 37 190 s;
#X msg 37 124 \$2;
#X connect 0 0 1 0;
#X connect 1 0 5 0;
#X connect 1 1 2 0;
#X connect 2 0 3 0;
#X connect 3 0 4 1;
#X connect 5 0 4 0;
#X restore 313 1118 pd route_out;
#N canvas 0 23 351 308 route_osc 0;
#X obj 45 40 t l l;
#X msg 45 103 \$3;
#X obj 45 189 s;
#X obj 77 71 unpack f f;
#X msg 144 125 set \$1;
#X obj 144 148 makefilename;
#X obj 144 102 makefilename \$0-r%%d%d;
#X obj 45 13 inlet;
#X connect 0 0 1 0;
#X connect 0 1 3 0;
#X connect 1 0 2 0;
#X connect 3 0 5 0;
#X connect 3 1 6 0;
#X connect 4 0 5 0;
#X connect 5 0 2 1;
#X connect 6 0 4 0;
#X connect 7 0 0 0;
#X restore 607 1068 pd route_osc;
#N canvas 0 23 536 444 route_out 0;
#X obj 37 37 inlet;
#X obj 37 81 t l l;
#X msg 69 124 \$1;
#X obj 69 157 makefilename \$0-r%dout;
#X obj 37 190 s;
#X msg 37 124 \$2;
#X connect 0 0 1 0;
#X connect 1 0 5 0;
#X connect 1 1 2 0;
#X connect 2 0 3 0;
#X connect 3 0 4 1;
#X connect 5 0 4 0;
#X restore 607 1118 pd route_out;
#N canvas 0 23 351 308 route_osc 0;
#X obj 45 40 t l l;
#X msg 45 103 \$3;
#X obj 45 189 s;
#X obj 77 71 unpack f f;
#X msg 144 125 set \$1;
#X obj 144 148 makefilename;
#X obj 144 102 makefilename \$0-r%%d%d;
#X obj 45 13 inlet;
#X connect 0 0 1 0;
#X connect 0 1 3 0;
#X connect 1 0 2 0;
#X connect 3 0 5 0;
#X connect 3 1 6 0;
#X connect 4 0 5 0;
#X connect 5 0 2 1;
#X connect 6 0 4 0;
#X connect 7 0 0 0;
#X restore 857 1068 pd route_osc;
#N canvas 0 23 536 444 route_out 0;
#X obj 37 37 inlet;
#X obj 37 81 t l l;
#X msg 69 124 \$1;
#X obj 69 157 makefilename \$0-r%dout;
#X obj 37 190 s;
#X msg 37 124 \$2;
#X connect 0 0 1 0;
#X connect 1 0 5 0;
#X connect 1 1 2 0;
#X connect 2 0 3 0;
#X connect 3 0 4 1;
#X connect 5 0 4 0;
#X restore 857 1118 pd route_out;
#X obj 127 1015 sel 29 30 31 32, f 89;
#X msg 19 1042 4 3 1 \, 6 5 1 \, 6 6 1;
#X msg 19 1093 1 1 \, 2 1 \, 3 1 \, 5 1;
#X msg 313 1042 4 3 1 \, 5 4 1 \, 5 5 1;
#X msg 313 1093 1 1 \, 2 1 \, 3 1 \, 6 1;
#X msg 607 1042 6 5 1 \, 6 6 1;
#X msg 607 1093 1 1 \, 2 1 \, 3 1 \, 4 1 \, 5 1;
#X msg 857 1042 6 6 1;
#X msg 857 1093 1 1 \, 2 1 \, 3 1 \, 4 1 \, 5 1 \, 6 1;
#X connect 0 0 1 0;
#X connect 1 0 9 0;
#X connect 2 0 6 0;
#X connect 2 0 4 0;
#X connect 2 1 13 0;
#X connect 2 1 11 0;
#X connect 2 2 17 0;
#X connect 2 2 16 0;
#X connect 2 3 21 0;
#X connect 2 3 20 0;
#X connect 2 4 30 0;
#X connect 4 0 5 0;
#X connect 6 0 3 0;
#X connect 9 0 2 0;
#X connect 9 1 8 0;
#X connect 11 0 12 0;
#X connect 13 0 10 0;
#X connect 16 0 15 0;
#X connect 17 0 14 0;
#X connect 20 0 19 0;
#X connect 21 0 18 0;
#X connect 30 0 33 0;
#X connect 30 0 31 0;
#X connect 30 1 32 0;
#X connect 30 1 34 0;
#X connect 30 2 35 0;
#X connect 30 2 36 0;
#X connect 30 3 37 0;
#X connect 30 3 38 0;
#X connect 30 4 48 0;
#X connect 31 0 23 0;
#X connect 32 0 24 0;
#X connect 33 0 22 0;
#X connect 34 0 25 0;
#X connect 35 0 26 0;
#X connect 36 0 27 0;
#X connect 37 0 28 0;
#X connect 38 0 29 0;
#X connect 47 0 46 0;
#X connect 48 0 49 0;
#X connect 48 0 50 0;
#X connect 48 1 51 0;
#X connect 48 1 52 0;
#X connect 48 2 53 0;
#X connect 48 2 54 0;
#X connect 48 3 55 0;
#X connect 48 3 47 0;
#X connect 48 4 65 0;
#X connect 49 0 39 0;
#X connect 50 0 40 0;
#X connect 51 0 41 0;
#X connect 52 0 42 0;
#X connect 53 0 43 0;
#X connect 54 0 44 0;
#X connect 55 0 45 0;
#X connect 64 0 57 0;
#X connect 65 0 66 0;
#X connect 65 0 64 0;
#X connect 65 1 67 0;
#X connect 65 1 68 0;
#X connect 65 2 69 0;
#X connect 65 2 70 0;
#X connect 65 3 71 0;
#X connect 65 3 72 0;
#X connect 65 4 81 0;
#X connect 66 0 56 0;
#X connect 67 0 58 0;
#X connect 68 0 59 0;
#X connect 69 0 60 0;
#X connect 70 0 61 0;
#X connect 71 0 62 0;
#X connect 72 0 63 0;
#X connect 81 0 82 0;
#X connect 81 0 83 0;
#X connect 81 1 84 0;
#X connect 81 1 85 0;
#X connect 81 2 86 0;
#X connect 81 2 87 0;
#X connect 81 3 88 0;
#X connect 81 3 89 0;
#X connect 81 4 98 0;
#X connect 82 0 73 0;
#X connect 83 0 74 0;
#X connect 84 0 75 0;
#X connect 85 0 76 0;
#X connect 86 0 77 0;
#X connect 87 0 78 0;
#X connect 88 0 79 0;
#X connect 89 0 80 0;
#X connect 98 0 99 0;
#X connect 98 0 100 0;
#X connect 98 1 101 0;
#X connect 98 1 102 0;
#X connect 98 2 103 0;
#X connect 98 2 104 0;
#X connect 98 3 105 0;
#X connect 98 3 106 0;
#X connect 98 4 115 0;
#X connect 99 0 90 0;
#X connect 100 0 91 0;
#X connect 101 0 92 0;
#X connect 102 0 93 0;
#X connect 103 0 94 0;
#X connect 104 0 95 0;
#X connect 105 0 96 0;
#X connect 106 0 97 0;
#X connect 115 0 117 0;
#X connect 115 0 116 0;
#X connect 115 1 118 0;
#X connect 115 1 119 0;
#X connect 115 2 120 0;
#X connect 115 2 121 0;
#X connect 115 3 122 0;
#X connect 115 3 123 0;
#X connect 115 4 132 0;
#X connect 116 0 108 0;
#X connect 117 0 107 0;
#X connect 118 0 109 0;
#X connect 119 0 110 0;
#X connect 120 0 111 0;
#X connect 121 0 112 0;
#X connect 122 0 113 0;
#X connect 123 0 114 0;
#X connect 132 0 133 0;
#X connect 132 0 134 0;
#X connect 132 1 135 0;
#X connect 132 1 136 0;
#X connect 132 2 137 0;
#X connect 132 2 138 0;
#X connect 132 3 139 0;
#X connect 132 3 140 0;
#X connect 133 0 124 0;
#X connect 134 0 125 0;
#X connect 135 0 126 0;
#X connect 136 0 127 0;
#X connect 137 0 128 0;
#X connect 138 0 129 0;
#X connect 139 0 130 0;
#X connect 140 0 131 0;
#X restore 43 178 pd algorithms;
#X obj 68 639 outlet~;
#X obj 43 24 inlet;
#X obj 43 47 route algorithm feedback toOscs;
#X obj 257 103 s \$0-oms;
#X msg 257 75 allOscs \$1 \$2;
#X obj 35 340 pmod_lfo_osc 1;
#X obj 175 340 pmod_lfo_osc 2;
#X obj 35 437 pmod_lfo_osc 3;
#X obj 175 437 pmod_lfo_osc 4;
#X obj 35 537 pmod_lfo_osc 5;
#X obj 175 537 pmod_lfo_osc 6;
#X connect 0 0 29 1;
#X connect 1 0 29 0;
#X connect 3 0 30 1;
#X connect 4 0 30 0;
#X connect 6 0 31 1;
#X connect 7 0 32 1;
#X connect 8 0 33 1;
#X connect 9 0 34 1;
#X connect 10 0 31 0;
#X connect 12 0 32 0;
#X connect 14 0 33 0;
#X connect 16 0 34 0;
#X connect 18 0 24 0;
#X connect 20 0 21 0;
#X connect 22 0 23 0;
#X connect 25 0 26 0;
#X connect 26 0 22 0;
#X connect 26 1 20 0;
#X connect 26 2 27 0;
#X connect 26 3 28 0;
#X connect 28 0 27 0;
#X connect 29 0 2 0;
#X connect 30 0 5 0;
#X connect 31 0 11 0;
#X connect 32 0 13 0;
#X connect 33 0 15 0;
#X connect 34 0 17 0;
